<?xml version="1.0" standalone="no"?>
<!DOCTYPE svg PUBLIC "-//W3C//DTD SVG 20010904//EN"
 "http://www.w3.org/TR/2001/REC-SVG-20010904/DTD/svg10.dtd">
<svg version="1.0" xmlns="http://www.w3.org/2000/svg"
 width="670.000000pt" height="670.000000pt" viewBox="0 0 670.000000 670.000000"
 preserveAspectRatio="xMidYMid meet">
<metadata>
Created by potrace 1.14, written by Peter Selinger 2001-2017
</metadata>
<g transform="translate(0.000000,670.000000) scale(0.100000,-0.100000)"
fill="#000000" stroke="none">
<path d="M3128 6695 c-2 -2 -43 -6 -92 -10 -49 -3 -92 -7 -95 -9 -3 -2 -32 -7
-64 -10 -61 -7 -206 -35 -362 -70 -45 -10 -255 -77 -330 -104 -266 -99 -535
-241 -770 -408 -60 -42 -112 -80 -115 -83 -3 -3 -27 -24 -55 -46 -119 -95
-271 -239 -390 -369 -108 -117 -252 -311 -353 -474 -68 -109 -212 -378 -212
-396 0 -3 -11 -29 -24 -58 -37 -82 -74 -181 -105 -282 -76 -247 -106 -381
-136 -611 -27 -210 -27 -616 0 -830 7 -56 15 -104 20 -129 2 -12 7 -38 10 -58
42 -302 220 -786 396 -1077 22 -34 39 -65 39 -68 0 -10 149 -223 220 -314 140
-180 306 -353 475 -494 33 -27 69 -58 79 -68 11 -9 74 -56 141 -103 449 -321
964 -524 1520 -598 205 -28 611 -28 835 -2 61 8 202 31 250 41 14 3 45 10 70
15 25 5 56 12 70 15 88 18 375 114 500 167 102 43 339 161 380 189 14 9 66 42
116 73 95 59 275 190 360 263 86 73 98 84 159 143 453 437 764 963 921 1559
20 74 38 146 41 160 2 14 8 45 13 68 6 23 12 63 15 90 3 26 8 55 10 64 3 8 8
40 11 70 3 30 9 90 13 134 8 79 6 532 -2 590 -2 17 -7 55 -11 86 -4 31 -8 65
-10 75 -2 11 -7 39 -10 64 -3 25 -8 56 -11 70 -3 14 -7 36 -10 50 -26 134 -51
227 -117 425 -89 268 -221 535 -391 790 -33 50 -63 92 -67 95 -3 3 -17 21 -30
40 -30 43 -32 45 -116 145 -121 144 -267 290 -399 400 -33 28 -62 53 -65 56
-3 3 -51 40 -107 81 -189 141 -455 294 -663 383 -36 15 -79 34 -97 41 -88 39
-441 147 -518 159 -11 1 -72 12 -135 23 -63 11 -140 23 -170 27 -30 3 -71 8
-90 11 -41 6 -536 14 -542 9z"/>
</g>
</svg>
