<svg width="320" height="300" viewBox="0 0 320 300" fill="none" xmlns="http://www.w3.org/2000/svg">
<rect x="200" width="40" height="20" fill="#BA972D"/>
<rect x="240" y="20" width="20" height="20" fill="#BA972D"/>
<rect x="260" y="40" width="20" height="20" fill="#BA972D"/>
<rect x="280" y="60" width="20" height="40" fill="#BA972D"/>
<rect x="200" y="280" width="40" height="20" fill="#BA972D"/>
<rect x="240" y="260" width="20" height="20" fill="#BA972D"/>
<rect x="260" y="240" width="20" height="20" fill="#BA972D"/>
<rect x="280" y="200" width="20" height="40" fill="#BA972D"/>
<rect x="300" y="100" width="20" height="100" fill="#BA972D"/>
<rect y="100" width="300" height="100" fill="#EDC13A"/>
<rect x="20" y="200" width="260" height="40" fill="#EDC13A"/>
<rect x="20" y="60" width="260" height="40" fill="#EDC13A"/>
<rect x="40" y="240" width="220" height="20" fill="#EDC13A"/>
<rect x="40" y="40" width="220" height="20" fill="#EDC13A"/>
<rect x="60" y="260" width="180" height="20" fill="#EDC13A"/>
<rect x="60" y="20" width="180" height="20" fill="#EDC13A"/>
<rect x="100" y="280" width="100" height="20" fill="#EDC13A"/>
<rect x="100" width="100" height="20" fill="#EDC13A"/>
<rect x="40" y="150" width="200" height="20" fill="black"/>
<rect x="60" y="130" width="40" height="20" fill="black"/>
<rect x="60" y="170" width="40" height="20" fill="black"/>
<rect x="80" y="190" width="40" height="20" fill="black"/>
<rect x="100" y="210" width="40" height="20" fill="black"/>
<rect x="120" y="230" width="20" height="20" fill="black"/>
<rect x="240" y="150" width="20" height="20" fill="#977B25"/>
<rect x="80" y="110" width="40" height="20" fill="black"/>
<rect x="100" y="90" width="40" height="20" fill="black"/>
<rect x="120" y="70" width="20" height="20" fill="black"/>
</svg>
