<svg width="171" height="27" viewBox="0 0 171 27" fill="none" xmlns="http://www.w3.org/2000/svg">
<path d="M11.96 15.24C12.056 15.624 12.104 16.104 12.104 16.68C12.104 17.232 12.056 17.712 11.96 18.12H10.52C10.616 18.504 10.664 18.984 10.664 19.56C10.664 20.112 10.616 20.592 10.52 21H3.32C3.224 20.592 3.176 20.112 3.176 19.56C3.176 18.984 3.224 18.504 3.32 18.12H1.88C1.784 17.712 1.736 17.232 1.736 16.68C1.736 16.104 1.784 15.624 1.88 15.24H0.44C0.344 14.832 0.296 14.352 0.296 13.8C0.296 13.224 0.344 12.744 0.44 12.36C0.344 11.952 0.296 11.472 0.296 10.92C0.296 10.344 0.344 9.864 0.44 9.48C0.344 9.072 0.296 8.592 0.296 8.04C0.296 7.464 0.344 6.984 0.44 6.6H1.88C1.784 6.192 1.736 5.712 1.736 5.16C1.736 4.584 1.784 4.104 1.88 3.72H3.32C3.224 3.312 3.176 2.832 3.176 2.28C3.176 1.704 3.224 1.224 3.32 0.84H10.52C10.616 1.224 10.664 1.704 10.664 2.28C10.664 2.832 10.616 3.312 10.52 3.72H11.96C12.056 4.104 12.104 4.584 12.104 5.16C12.104 5.712 12.056 6.192 11.96 6.6H9.08C8.984 6.192 8.936 5.712 8.936 5.16C8.936 4.584 8.984 4.104 9.08 3.72H4.76C4.856 4.104 4.904 4.584 4.904 5.16C4.904 5.712 4.856 6.192 4.76 6.6H3.32C3.416 6.984 3.464 7.464 3.464 8.04C3.464 8.592 3.416 9.072 3.32 9.48C3.416 9.864 3.464 10.344 3.464 10.92C3.464 11.472 3.416 11.952 3.32 12.36C3.416 12.744 3.464 13.224 3.464 13.8C3.464 14.352 3.416 14.832 3.32 15.24H4.76C4.856 15.624 4.904 16.104 4.904 16.68C4.904 17.232 4.856 17.712 4.76 18.12H9.08C8.984 17.712 8.936 17.232 8.936 16.68C8.936 16.104 8.984 15.624 9.08 15.24H11.96ZM26.5181 13.8C26.5181 14.352 26.4701 14.832 26.3741 15.24H25.2941C25.3901 15.624 25.4381 16.104 25.4381 16.68C25.4381 17.232 25.3901 17.712 25.2941 18.12H23.4941C23.5901 18.504 23.6381 18.984 23.6381 19.56C23.6381 20.112 23.5901 20.592 23.4941 21H17.7341C17.6381 20.592 17.5901 20.112 17.5901 19.56C17.5901 18.984 17.6381 18.504 17.7341 18.12H15.9341C15.8381 17.712 15.7901 17.232 15.7901 16.68C15.7901 16.104 15.8381 15.624 15.9341 15.24H14.8541C14.7581 14.832 14.7101 14.352 14.7101 13.8C14.7101 13.224 14.7581 12.744 14.8541 12.36H15.9341C15.8381 11.952 15.7901 11.472 15.7901 10.92C15.7901 10.344 15.8381 9.864 15.9341 9.48H17.7341C17.6381 9.072 17.5901 8.592 17.5901 8.04C17.5901 7.464 17.6381 6.984 17.7341 6.6H23.4941C23.5901 6.984 23.6381 7.464 23.6381 8.04C23.6381 8.592 23.5901 9.072 23.4941 9.48H25.2941C25.3901 9.864 25.4381 10.344 25.4381 10.92C25.4381 11.472 25.3901 11.952 25.2941 12.36H26.3741C26.4701 12.744 26.5181 13.224 26.5181 13.8ZM23.4941 15.24C23.3981 14.832 23.3501 14.352 23.3501 13.8C23.3501 13.224 23.3981 12.744 23.4941 12.36H22.4141C22.3181 11.952 22.2701 11.472 22.2701 10.92C22.2701 10.344 22.3181 9.864 22.4141 9.48H18.8141C18.9101 9.864 18.9581 10.344 18.9581 10.92C18.9581 11.472 18.9101 11.952 18.8141 12.36H17.7341C17.8301 12.744 17.8781 13.224 17.8781 13.8C17.8781 14.352 17.8301 14.832 17.7341 15.24H18.8141C18.9101 15.624 18.9581 16.104 18.9581 16.68C18.9581 17.232 18.9101 17.712 18.8141 18.12H22.4141C22.3181 17.712 22.2701 17.232 22.2701 16.68C22.2701 16.104 22.3181 15.624 22.4141 15.24H23.4941ZM40.7881 3.72C40.8841 4.104 40.9321 4.584 40.9321 5.16C40.9321 5.712 40.8841 6.192 40.7881 6.6C40.8841 6.984 40.9321 7.464 40.9321 8.04C40.9321 8.592 40.8841 9.072 40.7881 9.48C40.8841 9.864 40.9321 10.344 40.9321 10.92C40.9321 11.472 40.8841 11.952 40.7881 12.36C40.8841 12.744 40.9321 13.224 40.9321 13.8C40.9321 14.352 40.8841 14.832 40.7881 15.24C40.8841 15.624 40.9321 16.104 40.9321 16.68C40.9321 17.232 40.8841 17.712 40.7881 18.12C40.8841 18.504 40.9321 18.984 40.9321 19.56C40.9321 20.112 40.8841 20.592 40.7881 21H37.9081C37.8121 20.592 37.7641 20.112 37.7641 19.56C37.7641 18.984 37.8121 18.504 37.9081 18.12H36.8281C36.7321 17.712 36.6841 17.232 36.6841 16.68C36.6841 16.104 36.7321 15.624 36.8281 15.24H37.9081C37.8121 14.832 37.7641 14.352 37.7641 13.8C37.7641 13.224 37.8121 12.744 37.9081 12.36H36.8281C36.7321 11.952 36.6841 11.472 36.6841 10.92C36.6841 10.344 36.7321 9.864 36.8281 9.48H37.9081C37.8121 9.072 37.7641 8.592 37.7641 8.04C37.7641 7.464 37.8121 6.984 37.9081 6.6C37.8121 6.192 37.7641 5.712 37.7641 5.16C37.7641 4.584 37.8121 4.104 37.9081 3.72C37.8121 3.312 37.7641 2.832 37.7641 2.28C37.7641 1.704 37.8121 1.224 37.9081 0.84H40.7881C40.8841 1.224 40.9321 1.704 40.9321 2.28C40.9321 2.832 40.8841 3.312 40.7881 3.72ZM36.2521 8.04C36.2521 8.592 36.2041 9.072 36.1081 9.48H32.5081C32.6041 9.864 32.6521 10.344 32.6521 10.92C32.6521 11.472 32.6041 11.952 32.5081 12.36H31.4281C31.5241 12.744 31.5721 13.224 31.5721 13.8C31.5721 14.352 31.5241 14.832 31.4281 15.24H32.5081C32.6041 15.624 32.6521 16.104 32.6521 16.68C32.6521 17.232 32.6041 17.712 32.5081 18.12H36.1081C36.2041 18.504 36.2521 18.984 36.2521 19.56C36.2521 20.112 36.2041 20.592 36.1081 21H32.1481C32.0521 20.592 32.0041 20.112 32.0041 19.56C32.0041 18.984 32.0521 18.504 32.1481 18.12H30.3481C30.2521 17.712 30.2041 17.232 30.2041 16.68C30.2041 16.104 30.2521 15.624 30.3481 15.24H29.2681C29.1721 14.832 29.1241 14.352 29.1241 13.8C29.1241 13.224 29.1721 12.744 29.2681 12.36H30.3481C30.2521 11.952 30.2041 11.472 30.2041 10.92C30.2041 10.344 30.2521 9.864 30.3481 9.48H32.1481C32.0521 9.072 32.0041 8.592 32.0041 8.04C32.0041 7.464 32.0521 6.984 32.1481 6.6H36.1081C36.2041 6.984 36.2521 7.464 36.2521 8.04ZM55.3462 10.92C55.3462 11.472 55.2982 11.952 55.2022 12.36C55.2982 12.744 55.3462 13.224 55.3462 13.8C55.3462 14.352 55.2982 14.832 55.2022 15.24H47.6422C47.7382 15.624 47.7862 16.104 47.7862 16.68C47.7862 17.232 47.7382 17.712 47.6422 18.12H53.7622C53.8582 18.504 53.9062 18.984 53.9062 19.56C53.9062 20.112 53.8582 20.592 53.7622 21H46.5622C46.4662 20.592 46.4182 20.112 46.4182 19.56C46.4182 18.984 46.4662 18.504 46.5622 18.12H44.7622C44.6662 17.712 44.6182 17.232 44.6182 16.68C44.6182 16.104 44.6662 15.624 44.7622 15.24H43.6822C43.5862 14.832 43.5382 14.352 43.5382 13.8C43.5382 13.224 43.5862 12.744 43.6822 12.36H44.7622C44.6662 11.952 44.6182 11.472 44.6182 10.92C44.6182 10.344 44.6662 9.864 44.7622 9.48H46.5622C46.4662 9.072 46.4182 8.592 46.4182 8.04C46.4182 7.464 46.4662 6.984 46.5622 6.6H53.7622C53.8582 6.984 53.9062 7.464 53.9062 8.04C53.9062 8.592 53.8582 9.072 53.7622 9.48H55.2022C55.2982 9.864 55.3462 10.344 55.3462 10.92ZM52.3222 12.36C52.2262 11.952 52.1782 11.472 52.1782 10.92C52.1782 10.344 52.2262 9.864 52.3222 9.48H47.6422C47.7382 9.864 47.7862 10.344 47.7862 10.92C47.7862 11.472 47.7382 11.952 47.6422 12.36H52.3222ZM62.4163 12.36C62.5123 12.744 62.5603 13.224 62.5603 13.8C62.5603 14.352 62.5123 14.832 62.4163 15.24C62.5123 15.624 62.5603 16.104 62.5603 16.68C62.5603 17.232 62.5123 17.712 62.4163 18.12H68.1763C68.2723 18.504 68.3203 18.984 68.3203 19.56C68.3203 20.112 68.2723 20.592 68.1763 21H59.5363C59.4403 20.592 59.3923 20.112 59.3923 19.56C59.3923 18.984 59.4403 18.504 59.5363 18.12C59.4403 17.712 59.3923 17.232 59.3923 16.68C59.3923 16.104 59.4403 15.624 59.5363 15.24C59.4403 14.832 59.3923 14.352 59.3923 13.8C59.3923 13.224 59.4403 12.744 59.5363 12.36C59.4403 11.952 59.3923 11.472 59.3923 10.92C59.3923 10.344 59.4403 9.864 59.5363 9.48C59.4403 9.072 59.3923 8.592 59.3923 8.04C59.3923 7.464 59.4403 6.984 59.5363 6.6C59.4403 6.192 59.3923 5.712 59.3923 5.16C59.3923 4.584 59.4403 4.104 59.5363 3.72C59.4403 3.312 59.3923 2.832 59.3923 2.28C59.3923 1.704 59.4403 1.224 59.5363 0.84H68.1763C68.2723 1.224 68.3203 1.704 68.3203 2.28C68.3203 2.832 68.2723 3.312 68.1763 3.72H62.4163C62.5123 4.104 62.5603 4.584 62.5603 5.16C62.5603 5.712 62.5123 6.192 62.4163 6.6C62.5123 6.984 62.5603 7.464 62.5603 8.04C62.5603 8.592 62.5123 9.072 62.4163 9.48H68.1763C68.2723 9.864 68.3203 10.344 68.3203 10.92C68.3203 11.472 68.2723 11.952 68.1763 12.36H62.4163ZM83.3103 18.12C83.4063 18.504 83.4543 18.984 83.4543 19.56C83.4543 20.112 83.4063 20.592 83.3103 21H80.4303C80.3343 20.592 80.2863 20.112 80.2863 19.56C80.2863 18.984 80.3343 18.504 80.4303 18.12H79.3503C79.2543 17.712 79.2063 17.232 79.2063 16.68C79.2063 16.104 79.2543 15.624 79.3503 15.24H77.5503C77.6463 15.624 77.6943 16.104 77.6943 16.68C77.6943 17.232 77.6463 17.712 77.5503 18.12H76.1103C76.2063 18.504 76.2543 18.984 76.2543 19.56C76.2543 20.112 76.2063 20.592 76.1103 21H73.2303C73.1343 20.592 73.0863 20.112 73.0863 19.56C73.0863 18.984 73.1343 18.504 73.2303 18.12H74.6703C74.5743 17.712 74.5263 17.232 74.5263 16.68C74.5263 16.104 74.5743 15.624 74.6703 15.24H76.1103C76.0143 14.832 75.9663 14.352 75.9663 13.8C75.9663 13.224 76.0143 12.744 76.1103 12.36H74.6703C74.5743 11.952 74.5263 11.472 74.5263 10.92C74.5263 10.344 74.5743 9.864 74.6703 9.48H73.2303C73.1343 9.072 73.0863 8.592 73.0863 8.04C73.0863 7.464 73.1343 6.984 73.2303 6.6H76.1103C76.2063 6.984 76.2543 7.464 76.2543 8.04C76.2543 8.592 76.2063 9.072 76.1103 9.48H77.5503C77.6463 9.864 77.6943 10.344 77.6943 10.92C77.6943 11.472 77.6463 11.952 77.5503 12.36H79.3503C79.2543 11.952 79.2063 11.472 79.2063 10.92C79.2063 10.344 79.2543 9.864 79.3503 9.48H80.4303C80.3343 9.072 80.2863 8.592 80.2863 8.04C80.2863 7.464 80.3343 6.984 80.4303 6.6H83.3103C83.4063 6.984 83.4543 7.464 83.4543 8.04C83.4543 8.592 83.4063 9.072 83.3103 9.48H82.2303C82.3263 9.864 82.3743 10.344 82.3743 10.92C82.3743 11.472 82.3263 11.952 82.2303 12.36H80.4303C80.5263 12.744 80.5743 13.224 80.5743 13.8C80.5743 14.352 80.5263 14.832 80.4303 15.24H82.2303C82.3263 15.624 82.3743 16.104 82.3743 16.68C82.3743 17.232 82.3263 17.712 82.2303 18.12H83.3103ZM98.5884 13.8C98.5884 14.352 98.5404 14.832 98.4444 15.24H97.0044C97.1004 15.624 97.1484 16.104 97.1484 16.68C97.1484 17.232 97.1004 17.712 97.0044 18.12H95.5644C95.6604 18.504 95.7084 18.984 95.7084 19.56C95.7084 20.112 95.6604 20.592 95.5644 21H89.8044C89.9004 21.384 89.9484 21.864 89.9484 22.44C89.9484 22.992 89.9004 23.472 89.8044 23.88C89.9004 24.264 89.9484 24.744 89.9484 25.32C89.9484 25.872 89.9004 26.352 89.8044 26.76H86.9244C86.8284 26.352 86.7804 25.872 86.7804 25.32C86.7804 24.744 86.8284 24.264 86.9244 23.88C86.8284 23.472 86.7804 22.992 86.7804 22.44C86.7804 21.864 86.8284 21.384 86.9244 21C86.8284 20.592 86.7804 20.112 86.7804 19.56C86.7804 18.984 86.8284 18.504 86.9244 18.12C86.8284 17.712 86.7804 17.232 86.7804 16.68C86.7804 16.104 86.8284 15.624 86.9244 15.24C86.8284 14.832 86.7804 14.352 86.7804 13.8C86.7804 13.224 86.8284 12.744 86.9244 12.36C86.8284 11.952 86.7804 11.472 86.7804 10.92C86.7804 10.344 86.8284 9.864 86.9244 9.48C86.8284 9.072 86.7804 8.592 86.7804 8.04C86.7804 7.464 86.8284 6.984 86.9244 6.6H89.8044C89.9004 6.984 89.9484 7.464 89.9484 8.04C89.9484 8.592 89.9004 9.072 89.8044 9.48H91.2444C91.3404 9.864 91.3884 10.344 91.3884 10.92C91.3884 11.472 91.3404 11.952 91.2444 12.36H89.8044C89.9004 12.744 89.9484 13.224 89.9484 13.8C89.9484 14.352 89.9004 14.832 89.8044 15.24C89.9004 15.624 89.9484 16.104 89.9484 16.68C89.9484 17.232 89.9004 17.712 89.8044 18.12H94.1244C94.0284 17.712 93.9804 17.232 93.9804 16.68C93.9804 16.104 94.0284 15.624 94.1244 15.24H95.5644C95.4684 14.832 95.4204 14.352 95.4204 13.8C95.4204 13.224 95.4684 12.744 95.5644 12.36H94.1244C94.0284 11.952 93.9804 11.472 93.9804 10.92C93.9804 10.344 94.0284 9.864 94.1244 9.48H91.2444C91.1484 9.072 91.1004 8.592 91.1004 8.04C91.1004 7.464 91.1484 6.984 91.2444 6.6H95.5644C95.6604 6.984 95.7084 7.464 95.7084 8.04C95.7084 8.592 95.6604 9.072 95.5644 9.48H97.0044C97.1004 9.864 97.1484 10.344 97.1484 10.92C97.1484 11.472 97.1004 11.952 97.0044 12.36H98.4444C98.5404 12.744 98.5884 13.224 98.5884 13.8ZM112.858 9.48C112.954 9.864 113.002 10.344 113.002 10.92C113.002 11.472 112.954 11.952 112.858 12.36H109.978C109.882 11.952 109.834 11.472 109.834 10.92C109.834 10.344 109.882 9.864 109.978 9.48H107.458C107.554 9.864 107.602 10.344 107.602 10.92C107.602 11.472 107.554 11.952 107.458 12.36H106.378C106.474 12.744 106.522 13.224 106.522 13.8C106.522 14.352 106.474 14.832 106.378 15.24C106.474 15.624 106.522 16.104 106.522 16.68C106.522 17.232 106.474 17.712 106.378 18.12H108.538C108.634 18.504 108.682 18.984 108.682 19.56C108.682 20.112 108.634 20.592 108.538 21H101.338C101.242 20.592 101.194 20.112 101.194 19.56C101.194 18.984 101.242 18.504 101.338 18.12H103.498C103.402 17.712 103.354 17.232 103.354 16.68C103.354 16.104 103.402 15.624 103.498 15.24C103.402 14.832 103.354 14.352 103.354 13.8C103.354 13.224 103.402 12.744 103.498 12.36C103.402 11.952 103.354 11.472 103.354 10.92C103.354 10.344 103.402 9.864 103.498 9.48H101.338C101.242 9.072 101.194 8.592 101.194 8.04C101.194 7.464 101.242 6.984 101.338 6.6H104.938C105.034 6.984 105.082 7.464 105.082 8.04C105.082 8.592 105.034 9.072 104.938 9.48H106.378C106.282 9.072 106.234 8.592 106.234 8.04C106.234 7.464 106.282 6.984 106.378 6.6H111.778C111.874 6.984 111.922 7.464 111.922 8.04C111.922 8.592 111.874 9.072 111.778 9.48H112.858ZM127.417 10.92C127.417 11.472 127.369 11.952 127.273 12.36C127.369 12.744 127.417 13.224 127.417 13.8C127.417 14.352 127.369 14.832 127.273 15.24H119.713C119.809 15.624 119.857 16.104 119.857 16.68C119.857 17.232 119.809 17.712 119.713 18.12H125.833C125.929 18.504 125.977 18.984 125.977 19.56C125.977 20.112 125.929 20.592 125.833 21H118.633C118.537 20.592 118.489 20.112 118.489 19.56C118.489 18.984 118.537 18.504 118.633 18.12H116.833C116.736 17.712 116.688 17.232 116.688 16.68C116.688 16.104 116.736 15.624 116.833 15.24H115.753C115.657 14.832 115.609 14.352 115.609 13.8C115.609 13.224 115.657 12.744 115.753 12.36H116.833C116.736 11.952 116.688 11.472 116.688 10.92C116.688 10.344 116.736 9.864 116.833 9.48H118.633C118.537 9.072 118.489 8.592 118.489 8.04C118.489 7.464 118.537 6.984 118.633 6.6H125.833C125.929 6.984 125.977 7.464 125.977 8.04C125.977 8.592 125.929 9.072 125.833 9.48H127.273C127.369 9.864 127.417 10.344 127.417 10.92ZM124.393 12.36C124.297 11.952 124.249 11.472 124.249 10.92C124.249 10.344 124.297 9.864 124.393 9.48H119.713C119.809 9.864 119.857 10.344 119.857 10.92C119.857 11.472 119.809 11.952 119.713 12.36H124.393ZM141.111 16.68C141.111 17.232 141.063 17.712 140.967 18.12H139.527C139.623 18.504 139.671 18.984 139.671 19.56C139.671 20.112 139.623 20.592 139.527 21H131.607C131.511 20.592 131.463 20.112 131.463 19.56C131.463 18.984 131.511 18.504 131.607 18.12H138.087C137.991 17.712 137.943 17.232 137.943 16.68C137.943 16.104 137.991 15.624 138.087 15.24H132.327C132.231 14.832 132.183 14.352 132.183 13.8C132.183 13.224 132.231 12.744 132.327 12.36H130.887C130.791 11.952 130.743 11.472 130.743 10.92C130.743 10.344 130.791 9.864 130.887 9.48H132.327C132.231 9.072 132.183 8.592 132.183 8.04C132.183 7.464 132.231 6.984 132.327 6.6H140.247C140.343 6.984 140.391 7.464 140.391 8.04C140.391 8.592 140.343 9.072 140.247 9.48H133.767C133.863 9.864 133.911 10.344 133.911 10.92C133.911 11.472 133.863 11.952 133.767 12.36H139.527C139.623 12.744 139.671 13.224 139.671 13.8C139.671 14.352 139.623 14.832 139.527 15.24H140.967C141.063 15.624 141.111 16.104 141.111 16.68ZM155.525 16.68C155.525 17.232 155.477 17.712 155.381 18.12H153.941C154.037 18.504 154.085 18.984 154.085 19.56C154.085 20.112 154.037 20.592 153.941 21H146.021C145.925 20.592 145.877 20.112 145.877 19.56C145.877 18.984 145.925 18.504 146.021 18.12H152.501C152.405 17.712 152.357 17.232 152.357 16.68C152.357 16.104 152.405 15.624 152.501 15.24H146.741C146.645 14.832 146.597 14.352 146.597 13.8C146.597 13.224 146.645 12.744 146.741 12.36H145.301C145.205 11.952 145.157 11.472 145.157 10.92C145.157 10.344 145.205 9.864 145.301 9.48H146.741C146.645 9.072 146.597 8.592 146.597 8.04C146.597 7.464 146.645 6.984 146.741 6.6H154.661C154.757 6.984 154.805 7.464 154.805 8.04C154.805 8.592 154.757 9.072 154.661 9.48H148.181C148.277 9.864 148.325 10.344 148.325 10.92C148.325 11.472 148.277 11.952 148.181 12.36H153.941C154.037 12.744 154.085 13.224 154.085 13.8C154.085 14.352 154.037 14.832 153.941 15.24H155.381C155.477 15.624 155.525 16.104 155.525 16.68ZM170.659 13.8C170.659 14.352 170.611 14.832 170.515 15.24H169.435C169.531 15.624 169.579 16.104 169.579 16.68C169.579 17.232 169.531 17.712 169.435 18.12H167.635C167.731 18.504 167.779 18.984 167.779 19.56C167.779 20.112 167.731 20.592 167.635 21H161.875C161.779 20.592 161.731 20.112 161.731 19.56C161.731 18.984 161.779 18.504 161.875 18.12H160.075C159.979 17.712 159.931 17.232 159.931 16.68C159.931 16.104 159.979 15.624 160.075 15.24H158.995C158.899 14.832 158.851 14.352 158.851 13.8C158.851 13.224 158.899 12.744 158.995 12.36H160.075C159.979 11.952 159.931 11.472 159.931 10.92C159.931 10.344 159.979 9.864 160.075 9.48H161.875C161.779 9.072 161.731 8.592 161.731 8.04C161.731 7.464 161.779 6.984 161.875 6.6H167.635C167.731 6.984 167.779 7.464 167.779 8.04C167.779 8.592 167.731 9.072 167.635 9.48H169.435C169.531 9.864 169.579 10.344 169.579 10.92C169.579 11.472 169.531 11.952 169.435 12.36H170.515C170.611 12.744 170.659 13.224 170.659 13.8ZM167.635 15.24C167.539 14.832 167.491 14.352 167.491 13.8C167.491 13.224 167.539 12.744 167.635 12.36H166.555C166.459 11.952 166.411 11.472 166.411 10.92C166.411 10.344 166.459 9.864 166.555 9.48H162.955C163.051 9.864 163.099 10.344 163.099 10.92C163.099 11.472 163.051 11.952 162.955 12.36H161.875C161.971 12.744 162.019 13.224 162.019 13.8C162.019 14.352 161.971 14.832 161.875 15.24H162.955C163.051 15.624 163.099 16.104 163.099 16.68C163.099 17.232 163.051 17.712 162.955 18.12H166.555C166.459 17.712 166.411 17.232 166.411 16.68C166.411 16.104 166.459 15.624 166.555 15.24H167.635Z" fill="#EDC13A"/>
</svg>
