<?xml version="1.0" encoding="UTF-8" standalone="no"?>
<!-- Created with Inkscape (http://www.inkscape.org/) -->

<svg
   width="19"
   height="19"
   viewBox="0 0 5.0270832 5.0270833"
   version="1.1"
   id="svg5"
   inkscape:export-filename="bitmap.svg"
   inkscape:export-xdpi="96"
   inkscape:export-ydpi="96"
   inkscape:version="1.2.1 (9c6d41e410, 2022-07-14)"
   sodipodi:docname="default_profile_pic.svg"
   xmlns:inkscape="http://www.inkscape.org/namespaces/inkscape"
   xmlns:sodipodi="http://sodipodi.sourceforge.net/DTD/sodipodi-0.dtd"
   xmlns="http://www.w3.org/2000/svg"
   xmlns:svg="http://www.w3.org/2000/svg">
  <sodipodi:namedview
     id="namedview7"
     pagecolor="#ffffff"
     bordercolor="#000000"
     borderopacity="0.25"
     inkscape:showpageshadow="2"
     inkscape:pageopacity="0.0"
     inkscape:pagecheckerboard="0"
     inkscape:deskcolor="#d1d1d1"
     inkscape:document-units="mm"
     showgrid="true"
     inkscape:zoom="31.768538"
     inkscape:cx="10.513546"
     inkscape:cy="8.4989747"
     inkscape:window-width="1920"
     inkscape:window-height="986"
     inkscape:window-x="-11"
     inkscape:window-y="-11"
     inkscape:window-maximized="1"
     inkscape:current-layer="layer1">
    <inkscape:grid
       type="xygrid"
       id="grid132" />
  </sodipodi:namedview>
  <defs
     id="defs2" />
  <g
     inkscape:label="Layer 1"
     inkscape:groupmode="layer"
     id="layer1">
    <rect
       style="display:inline;fill:#808080;stroke-width:0.264583;fill-opacity:1"
       id="rect236"
       width="5.0270834"
       height="5.0270834"
       x="0"
       y="0"
       inkscape:label="rect236" />
    <path
       id="rect1731"
       style="fill:#ffffff;fill-opacity:1;stroke-width:0.264583"
       d="M 1.8520833 0.26458333 L 1.8520833 0.52916667 L 1.3229167 0.52916667 L 1.3229167 1.0583333 L 1.0583333 1.0583333 L 1.0583333 2.38125 L 1.3229167 2.38125 L 1.3229167 2.9104167 L 1.8520833 2.9104167 L 1.8520833 3.175 L 3.175 3.175 L 3.175 2.9104167 L 3.7041667 2.9104167 L 3.7041667 2.38125 L 3.96875 2.38125 L 3.96875 1.0583333 L 3.7041667 1.0583333 L 3.7041667 0.52916667 L 3.175 0.52916667 L 3.175 0.26458333 L 1.8520833 0.26458333 z M 1.5875 3.4395833 L 1.5875 3.7041667 L 1.0583333 3.7041667 L 1.0583333 3.96875 L 0.79375 3.96875 L 0.79375 4.2333333 L 0.52916667 4.2333333 L 0.52916667 4.7625 L 0.52916667 5.0270833 L 4.4979167 5.0270833 L 4.4979167 4.7625 L 4.4979167 4.2333333 L 4.2333333 4.2333333 L 4.2333333 3.96875 L 3.96875 3.96875 L 3.96875 3.7041667 L 3.4395833 3.7041667 L 3.4395833 3.4395833 L 1.5875 3.4395833 z " />
  </g>
</svg>
