<?xml version="1.0" encoding="UTF-8" standalone="no"?>
<!-- Created with Inkscape (http://www.inkscape.org/) -->

<svg
   width="15"
   height="10"
   viewBox="0 0 3.9687499 2.6458335"
   version="1.1"
   id="svg5"
   inkscape:version="1.2.1 (9c6d41e410, 2022-07-14)"
   sodipodi:docname="right.svg"
   xmlns:inkscape="http://www.inkscape.org/namespaces/inkscape"
   xmlns:sodipodi="http://sodipodi.sourceforge.net/DTD/sodipodi-0.dtd"
   xmlns="http://www.w3.org/2000/svg"
   xmlns:svg="http://www.w3.org/2000/svg">
  <sodipodi:namedview
     id="namedview7"
     pagecolor="#ffffff"
     bordercolor="#000000"
     borderopacity="0.25"
     inkscape:showpageshadow="2"
     inkscape:pageopacity="0.0"
     inkscape:pagecheckerboard="0"
     inkscape:deskcolor="#d1d1d1"
     inkscape:document-units="mm"
     showgrid="false"
     inkscape:zoom="32"
     inkscape:cx="1.625"
     inkscape:cy="5.28125"
     inkscape:window-width="1920"
     inkscape:window-height="986"
     inkscape:window-x="-11"
     inkscape:window-y="-11"
     inkscape:window-maximized="1"
     inkscape:current-layer="layer1">
    <inkscape:grid
       type="xygrid"
       id="grid256"
       originx="0"
       originy="0" />
  </sodipodi:namedview>
  <defs
     id="defs2" />
  <g
     inkscape:label="Layer 1"
     inkscape:groupmode="layer"
     id="layer1">
    <path
       id="rect914-79-4"
       style="fill:#1a1a1a;stroke-width:0.264583"
       d="M 0.52916667 0.79375 L 0.52916667 1.0583333 L 0.52916667 2.38125 L 0.79375 2.38125 L 3.4395833 2.38125 L 3.4395833 2.1166667 L 3.4395833 1.0583333 L 3.4395833 0.79375 L 0.52916667 0.79375 z M 1.3229167 1.0583333 L 1.5875 1.0583333 L 1.5875 1.3229167 L 1.3229167 1.3229167 L 1.3229167 1.0583333 z M 2.9104167 1.0583333 L 3.175 1.0583333 L 3.175 1.3229167 L 2.9104167 1.3229167 L 2.9104167 1.0583333 z M 1.3229167 1.5875 L 2.6458333 1.5875 L 2.6458333 1.8520833 L 2.6458333 2.1166667 L 2.38125 2.1166667 L 2.38125 1.8520833 L 2.1166667 1.8520833 L 1.8520833 1.8520833 L 1.5875 1.8520833 L 1.5875 2.1166667 L 1.3229167 2.1166667 L 1.3229167 1.8520833 L 1.3229167 1.5875 z " />
    <path
       id="rect914-72-79"
       style="fill:#fbef08;fill-opacity:1;stroke-width:0.264583"
       d="M 1.3229167 1.5875 L 1.3229167 1.8520833 L 1.3229167 2.1166667 L 1.5875 2.1166667 L 1.5875 1.8520833 L 1.8520833 1.8520833 L 2.1166667 1.8520833 L 2.38125 1.8520833 L 2.38125 2.1166667 L 2.6458333 2.1166667 L 2.6458333 1.8520833 L 2.6458333 1.5875 L 2.38125 1.5875 L 2.1166667 1.5875 L 1.8520833 1.5875 L 1.5875 1.5875 L 1.3229167 1.5875 z " />
    <rect
       style="fill:#fbef08;fill-opacity:1;stroke-width:0.264583"
       id="rect914-72-79-19-1"
       width="0.26458332"
       height="0.26458332"
       x="1.3208497"
       y="1.0583334" />
    <rect
       style="fill:#fbef08;fill-opacity:1;stroke-width:0.264583"
       id="rect914-72-79-19-3"
       width="0.26458332"
       height="0.26458332"
       x="2.9104159"
       y="1.0583333" />
    <path
       id="rect24538"
       style="fill:#a1a1a1;fill-opacity:1;stroke-width:0.264583"
       d="M 0.26458333 0.52916667 L 0.26458333 0.79375 L 0.26458333 2.38125 L 0.26458333 2.6458333 L 3.7041667 2.6458333 L 3.7041667 2.38125 L 3.7041667 0.52916667 L 3.4395833 0.52916667 L 0.26458333 0.52916667 z M 0.52916667 0.79375 L 3.4395833 0.79375 L 3.4395833 2.38125 L 0.52916667 2.38125 L 0.52916667 0.79375 z " />
    <path
       id="rect26266"
       style="fill:#6f6f6f;fill-opacity:1;stroke-width:0.264583"
       d="M 1.0583333 0.26458333 L 1.0583333 0.52916667 L 2.9104167 0.52916667 L 2.9104167 0.26458333 L 1.0583333 0.26458333 z M 0 1.0583333 L 0 2.1166667 L 0.26458333 2.1166667 L 0.26458333 1.0583333 L 0 1.0583333 z M 3.7041667 1.0583333 L 3.7041667 2.1166667 L 3.96875 2.1166667 L 3.96875 1.0583333 L 3.7041667 1.0583333 z " />
    <path
       id="rect27386"
       style="fill:#ff1414;fill-opacity:1;stroke-width:0.264583"
       d="M 1.5875 0 L 1.5875 0.26458333 L 1.8520833 0.26458333 L 1.8520833 0 L 1.5875 0 z M 2.1166667 0 L 2.1166667 0.26458333 L 2.38125 0.26458333 L 2.38125 0 L 2.1166667 0 z " />
    <rect
       style="fill:#d90000;fill-opacity:1;stroke-width:0.264583"
       id="rect27386-9"
       width="0.26458332"
       height="0.26458332"
       x="1.8520833"
       y="0" />
  </g>
</svg>
