<svg width="933" height="219" viewBox="0 0 933 219" fill="none" xmlns="http://www.w3.org/2000/svg">
<path d="M60.7324 157.891V127.617H66.7871V121.562H72.8418V115.459H78.8965V145.781H72.8418V151.836H66.7871V157.891H60.7324ZM30.4102 176.055V170H24.3555V163.945H18.3008V157.891H12.2461V151.836H6.19141V145.781H0.136719V30.6445H6.19141V24.5898H12.2461V18.4863H18.3008V133.672H24.3555V139.727H30.4102V145.781H36.4648V151.836H42.5195V157.891H60.7324V163.945H54.6777V170H48.5742V176.055H30.4102ZM60.7324 48.8086V42.7539H54.6777V36.6992H48.5742V30.6445H42.5195V24.5898H36.4648V18.4863H18.3008V12.4316H24.3555V6.37695H30.4102V0.322266H48.5742V6.37695H54.6777V12.4316H60.7324V18.4863H66.7871V24.5898H72.8418V30.6445H78.8965V36.6992H72.8418V42.7539H66.7871V48.8086H60.7324ZM109.121 170V163.945H103.066V157.891H97.0117V151.836H90.957V91.2402H97.0117V85.1855H103.066V79.1309H109.121V139.727H115.176V145.781H121.23V151.836H133.34V157.891H127.285V163.945H121.23V170H109.121ZM133.34 151.836V91.2402H127.285V85.1855H121.23V79.1309H109.121V73.0762H115.176V66.9727H121.23V60.918H133.34V66.9727H139.395V73.0762H145.498V79.1309H151.553V139.727H145.498V145.781H139.395V151.836H133.34ZM181.777 79.1309V139.727H187.832V145.781H193.887V151.836H205.996V91.2402H199.941V85.1855H193.887V79.1309H181.777ZM181.777 79.1309V73.0762H187.832V66.9727H193.887V60.918H199.941V66.9727H205.996V30.6445H212.051V24.5898H218.154V18.4863H224.209V151.836H230.264V163.945H224.209V170H218.154V163.945H212.051V157.891H199.941V163.945H193.887V170H181.777V163.945H175.723V157.891H169.668V151.836H163.613V91.2402H169.668V85.1855H175.723V79.1309H181.777ZM266.543 127.617V121.562H272.598V127.617H266.543ZM272.598 121.562V115.459H278.652V121.562H272.598ZM284.707 151.836V127.617H290.762V121.562H296.865V115.459H302.92V139.727H296.865V145.781H290.762V151.836H284.707ZM278.652 115.459V109.404H284.707V115.459H278.652ZM260.488 170V163.945H254.434V157.891H248.379V151.836H242.324V91.2402H248.379V85.1855H254.434V79.1309H260.488V127.617H266.543V133.672H260.488V139.727H266.543V145.781H272.598V151.836H284.707V157.891H278.652V163.945H272.598V170H260.488ZM284.707 109.404V91.2402H278.652V85.1855H272.598V79.1309H260.488V73.0762H266.543V66.9727H272.598V60.918H284.707V66.9727H290.762V73.0762H296.865V79.1309H302.92V97.2949H296.865V103.35H290.762V109.404H284.707ZM321.035 85.1855V79.1309H314.98V42.7539H321.035V36.6992H327.09V30.6445H333.145V66.9727H339.199V73.0762H333.145V79.1309H327.09V85.1855H321.035ZM351.309 170V42.7539H357.363V36.6992H363.418V30.6445H369.521V73.0762H411.904V79.1309H405.85V85.1855H369.521V151.836H424.062V157.891H418.008V163.945H411.904V170H351.309ZM333.145 30.6445V24.5898H339.199V30.6445H333.145ZM339.199 24.5898V18.4863H345.254V24.5898H339.199ZM345.254 18.4863V12.4316H351.309V6.37695H363.418V0.322266H430.117V6.37695H424.062V12.4316H418.008V18.4863H345.254ZM442.324 170V139.727H448.379V133.672H454.434V127.617H460.488V157.891H454.434V163.945H448.379V170H442.324ZM484.707 170V121.562H478.652V115.459H472.598V109.404H478.652V103.35H484.707V109.404H496.865V115.459H502.92V157.891H496.865V163.945H490.762V170H484.707ZM460.488 127.617V121.562H448.379V115.459H442.324V73.0762H448.379V66.9727H454.434V60.918H460.488V109.404H466.543V115.459H472.598V121.562H466.543V127.617H460.488ZM484.707 103.35V73.0762H490.762V66.9727H496.865V60.918H502.92V91.2402H496.865V97.2949H490.762V103.35H484.707ZM557.363 157.891V91.2402H551.309V85.1855H545.254V79.1309H533.145V145.781H539.199V151.836H545.254V157.891H557.363ZM557.363 157.891V163.945H551.309V170H539.199V163.945H533.145V206.328H527.09V212.383H521.035V218.438H514.98V73.0762H521.035V66.9727H527.09V60.918H533.145V73.0762H539.199V66.9727H545.254V60.918H557.363V66.9727H563.418V73.0762H569.521V79.1309H575.576V145.781H569.521V151.836H563.418V157.891H557.363ZM587.637 170V73.0762H593.691V66.9727H599.746V60.918H605.801V73.0762H611.855V66.9727H617.91V60.918H630.02V66.9727H636.074V73.0762H642.178V79.1309H636.074V85.1855H630.02V91.2402H623.965V85.1855H617.91V79.1309H605.801V157.891H599.746V163.945H593.691V170H587.637ZM678.457 127.617V121.562H684.512V127.617H678.457ZM684.512 121.562V115.459H690.566V121.562H684.512ZM696.621 151.836V127.617H702.676V121.562H708.779V115.459H714.834V139.727H708.779V145.781H702.676V151.836H696.621ZM690.566 115.459V109.404H696.621V115.459H690.566ZM672.402 170V163.945H666.348V157.891H660.293V151.836H654.238V91.2402H660.293V85.1855H666.348V79.1309H672.402V127.617H678.457V133.672H672.402V139.727H678.457V145.781H684.512V151.836H696.621V157.891H690.566V163.945H684.512V170H672.402ZM696.621 109.404V91.2402H690.566V85.1855H684.512V79.1309H672.402V73.0762H678.457V66.9727H684.512V60.918H696.621V66.9727H702.676V73.0762H708.779V79.1309H714.834V97.2949H708.779V103.35H702.676V109.404H696.621ZM745.059 170V163.945H739.004V157.891H732.949V151.836H726.895V139.727H751.113V145.781H757.168V151.836H769.277V157.891H763.223V163.945H757.168V170H745.059ZM769.277 151.836V139.727H763.223V133.672H757.168V127.617H751.113V121.562H745.059V115.459H739.004V109.404H732.949V103.35H726.895V91.2402H732.949V85.1855H739.004V79.1309H745.059V91.2402H751.113V97.2949H757.168V103.35H763.223V109.404H769.277V115.459H775.332V121.562H781.436V127.617H787.49V139.727H781.436V145.781H775.332V151.836H769.277ZM763.223 91.2402V85.1855H757.168V79.1309H745.059V73.0762H751.113V66.9727H757.168V60.918H769.277V66.9727H775.332V73.0762H781.436V79.1309H787.49V91.2402H763.223ZM817.715 170V163.945H811.66V157.891H805.605V151.836H799.551V139.727H823.77V145.781H829.824V151.836H841.934V157.891H835.879V163.945H829.824V170H817.715ZM841.934 151.836V139.727H835.879V133.672H829.824V127.617H823.77V121.562H817.715V115.459H811.66V109.404H805.605V103.35H799.551V91.2402H805.605V85.1855H811.66V79.1309H817.715V91.2402H823.77V97.2949H829.824V103.35H835.879V109.404H841.934V115.459H847.988V121.562H854.092V127.617H860.146V139.727H854.092V145.781H847.988V151.836H841.934ZM835.879 91.2402V85.1855H829.824V79.1309H817.715V73.0762H823.77V66.9727H829.824V60.918H841.934V66.9727H847.988V73.0762H854.092V79.1309H860.146V91.2402H835.879ZM890.371 170V163.945H884.316V157.891H878.262V151.836H872.207V91.2402H878.262V85.1855H884.316V79.1309H890.371V139.727H896.426V145.781H902.48V151.836H914.59V157.891H908.535V163.945H902.48V170H890.371ZM914.59 151.836V91.2402H908.535V85.1855H902.48V79.1309H890.371V73.0762H896.426V66.9727H902.48V60.918H914.59V66.9727H920.645V73.0762H926.748V79.1309H932.803V139.727H926.748V145.781H920.645V151.836H914.59Z" fill="#FBBC05"/>
<path d="M60.7324 157.891H59.7324V158.891H60.7324V157.891ZM60.7324 127.617V126.617H59.7324V127.617H60.7324ZM66.7871 127.617V128.617H67.7871V127.617H66.7871ZM66.7871 121.562V120.562H65.7871V121.562H66.7871ZM72.8418 121.562V122.562H73.8418V121.562H72.8418ZM72.8418 115.459V114.459H71.8418V115.459H72.8418ZM78.8965 115.459H79.8965V114.459H78.8965V115.459ZM78.8965 145.781V146.781H79.8965V145.781H78.8965ZM72.8418 145.781V144.781H71.8418V145.781H72.8418ZM72.8418 151.836V152.836H73.8418V151.836H72.8418ZM66.7871 151.836V150.836H65.7871V151.836H66.7871ZM66.7871 157.891V158.891H67.7871V157.891H66.7871ZM30.4102 176.055H29.4102V177.055H30.4102V176.055ZM30.4102 170H31.4102V169H30.4102V170ZM24.3555 170H23.3555V171H24.3555V170ZM24.3555 163.945H25.3555V162.945H24.3555V163.945ZM18.3008 163.945H17.3008V164.945H18.3008V163.945ZM18.3008 157.891H19.3008V156.891H18.3008V157.891ZM12.2461 157.891H11.2461V158.891H12.2461V157.891ZM12.2461 151.836H13.2461V150.836H12.2461V151.836ZM6.19141 151.836H5.19141V152.836H6.19141V151.836ZM6.19141 145.781H7.19141V144.781H6.19141V145.781ZM0.136719 145.781H-0.863281V146.781H0.136719V145.781ZM0.136719 30.6445V29.6445H-0.863281V30.6445H0.136719ZM6.19141 30.6445V31.6445H7.19141V30.6445H6.19141ZM6.19141 24.5898V23.5898H5.19141V24.5898H6.19141ZM12.2461 24.5898V25.5898H13.2461V24.5898H12.2461ZM12.2461 18.4863V17.4863H11.2461V18.4863H12.2461ZM18.3008 18.4863H19.3008V17.4863H18.3008V18.4863ZM18.3008 133.672H17.3008V134.672H18.3008V133.672ZM24.3555 133.672H25.3555V132.672H24.3555V133.672ZM24.3555 139.727H23.3555V140.727H24.3555V139.727ZM30.4102 139.727H31.4102V138.727H30.4102V139.727ZM30.4102 145.781H29.4102V146.781H30.4102V145.781ZM36.4648 145.781H37.4648V144.781H36.4648V145.781ZM36.4648 151.836H35.4648V152.836H36.4648V151.836ZM42.5195 151.836H43.5195V150.836H42.5195V151.836ZM42.5195 157.891H41.5195V158.891H42.5195V157.891ZM60.7324 157.891H61.7324V156.891H60.7324V157.891ZM60.7324 163.945V164.945H61.7324V163.945H60.7324ZM54.6777 163.945V162.945H53.6777V163.945H54.6777ZM54.6777 170V171H55.6777V170H54.6777ZM48.5742 170V169H47.5742V170H48.5742ZM48.5742 176.055V177.055H49.5742V176.055H48.5742ZM60.7324 48.8086H59.7324V49.8086H60.7324V48.8086ZM60.7324 42.7539H61.7324V41.7539H60.7324V42.7539ZM54.6777 42.7539H53.6777V43.7539H54.6777V42.7539ZM54.6777 36.6992H55.6777V35.6992H54.6777V36.6992ZM48.5742 36.6992H47.5742V37.6992H48.5742V36.6992ZM48.5742 30.6445H49.5742V29.6445H48.5742V30.6445ZM42.5195 30.6445H41.5195V31.6445H42.5195V30.6445ZM42.5195 24.5898H43.5195V23.5898H42.5195V24.5898ZM36.4648 24.5898H35.4648V25.5898H36.4648V24.5898ZM36.4648 18.4863H37.4648V17.4863H36.4648V18.4863ZM18.3008 18.4863H17.3008V19.4863H18.3008V18.4863ZM18.3008 12.4316V11.4316H17.3008V12.4316H18.3008ZM24.3555 12.4316V13.4316H25.3555V12.4316H24.3555ZM24.3555 6.37695V5.37695H23.3555V6.37695H24.3555ZM30.4102 6.37695V7.37695H31.4102V6.37695H30.4102ZM30.4102 0.322266V-0.677734H29.4102V0.322266H30.4102ZM48.5742 0.322266H49.5742V-0.677734H48.5742V0.322266ZM48.5742 6.37695H47.5742V7.37695H48.5742V6.37695ZM54.6777 6.37695H55.6777V5.37695H54.6777V6.37695ZM54.6777 12.4316H53.6777V13.4316H54.6777V12.4316ZM60.7324 12.4316H61.7324V11.4316H60.7324V12.4316ZM60.7324 18.4863H59.7324V19.4863H60.7324V18.4863ZM66.7871 18.4863H67.7871V17.4863H66.7871V18.4863ZM66.7871 24.5898H65.7871V25.5898H66.7871V24.5898ZM72.8418 24.5898H73.8418V23.5898H72.8418V24.5898ZM72.8418 30.6445H71.8418V31.6445H72.8418V30.6445ZM78.8965 30.6445H79.8965V29.6445H78.8965V30.6445ZM78.8965 36.6992V37.6992H79.8965V36.6992H78.8965ZM72.8418 36.6992V35.6992H71.8418V36.6992H72.8418ZM72.8418 42.7539V43.7539H73.8418V42.7539H72.8418ZM66.7871 42.7539V41.7539H65.7871V42.7539H66.7871ZM66.7871 48.8086V49.8086H67.7871V48.8086H66.7871ZM61.7324 157.891V127.617H59.7324V157.891H61.7324ZM60.7324 128.617H66.7871V126.617H60.7324V128.617ZM67.7871 127.617V121.562H65.7871V127.617H67.7871ZM66.7871 122.562H72.8418V120.562H66.7871V122.562ZM73.8418 121.562V115.459H71.8418V121.562H73.8418ZM72.8418 116.459H78.8965V114.459H72.8418V116.459ZM77.8965 115.459V145.781H79.8965V115.459H77.8965ZM78.8965 144.781H72.8418V146.781H78.8965V144.781ZM71.8418 145.781V151.836H73.8418V145.781H71.8418ZM72.8418 150.836H66.7871V152.836H72.8418V150.836ZM65.7871 151.836V157.891H67.7871V151.836H65.7871ZM66.7871 156.891H60.7324V158.891H66.7871V156.891ZM31.4102 176.055V170H29.4102V176.055H31.4102ZM30.4102 169H24.3555V171H30.4102V169ZM25.3555 170V163.945H23.3555V170H25.3555ZM24.3555 162.945H18.3008V164.945H24.3555V162.945ZM19.3008 163.945V157.891H17.3008V163.945H19.3008ZM18.3008 156.891H12.2461V158.891H18.3008V156.891ZM13.2461 157.891V151.836H11.2461V157.891H13.2461ZM12.2461 150.836H6.19141V152.836H12.2461V150.836ZM7.19141 151.836V145.781H5.19141V151.836H7.19141ZM6.19141 144.781H0.136719V146.781H6.19141V144.781ZM1.13672 145.781V30.6445H-0.863281V145.781H1.13672ZM0.136719 31.6445H6.19141V29.6445H0.136719V31.6445ZM7.19141 30.6445V24.5898H5.19141V30.6445H7.19141ZM6.19141 25.5898H12.2461V23.5898H6.19141V25.5898ZM13.2461 24.5898V18.4863H11.2461V24.5898H13.2461ZM12.2461 19.4863H18.3008V17.4863H12.2461V19.4863ZM17.3008 18.4863V133.672H19.3008V18.4863H17.3008ZM18.3008 134.672H24.3555V132.672H18.3008V134.672ZM23.3555 133.672V139.727H25.3555V133.672H23.3555ZM24.3555 140.727H30.4102V138.727H24.3555V140.727ZM29.4102 139.727V145.781H31.4102V139.727H29.4102ZM30.4102 146.781H36.4648V144.781H30.4102V146.781ZM35.4648 145.781V151.836H37.4648V145.781H35.4648ZM36.4648 152.836H42.5195V150.836H36.4648V152.836ZM41.5195 151.836V157.891H43.5195V151.836H41.5195ZM42.5195 158.891H60.7324V156.891H42.5195V158.891ZM59.7324 157.891V163.945H61.7324V157.891H59.7324ZM60.7324 162.945H54.6777V164.945H60.7324V162.945ZM53.6777 163.945V170H55.6777V163.945H53.6777ZM54.6777 169H48.5742V171H54.6777V169ZM47.5742 170V176.055H49.5742V170H47.5742ZM48.5742 175.055H30.4102V177.055H48.5742V175.055ZM61.7324 48.8086V42.7539H59.7324V48.8086H61.7324ZM60.7324 41.7539H54.6777V43.7539H60.7324V41.7539ZM55.6777 42.7539V36.6992H53.6777V42.7539H55.6777ZM54.6777 35.6992H48.5742V37.6992H54.6777V35.6992ZM49.5742 36.6992V30.6445H47.5742V36.6992H49.5742ZM48.5742 29.6445H42.5195V31.6445H48.5742V29.6445ZM43.5195 30.6445V24.5898H41.5195V30.6445H43.5195ZM42.5195 23.5898H36.4648V25.5898H42.5195V23.5898ZM37.4648 24.5898V18.4863H35.4648V24.5898H37.4648ZM36.4648 17.4863H18.3008V19.4863H36.4648V17.4863ZM19.3008 18.4863V12.4316H17.3008V18.4863H19.3008ZM18.3008 13.4316H24.3555V11.4316H18.3008V13.4316ZM25.3555 12.4316V6.37695H23.3555V12.4316H25.3555ZM24.3555 7.37695H30.4102V5.37695H24.3555V7.37695ZM31.4102 6.37695V0.322266H29.4102V6.37695H31.4102ZM30.4102 1.32227H48.5742V-0.677734H30.4102V1.32227ZM47.5742 0.322266V6.37695H49.5742V0.322266H47.5742ZM48.5742 7.37695H54.6777V5.37695H48.5742V7.37695ZM53.6777 6.37695V12.4316H55.6777V6.37695H53.6777ZM54.6777 13.4316H60.7324V11.4316H54.6777V13.4316ZM59.7324 12.4316V18.4863H61.7324V12.4316H59.7324ZM60.7324 19.4863H66.7871V17.4863H60.7324V19.4863ZM65.7871 18.4863V24.5898H67.7871V18.4863H65.7871ZM66.7871 25.5898H72.8418V23.5898H66.7871V25.5898ZM71.8418 24.5898V30.6445H73.8418V24.5898H71.8418ZM72.8418 31.6445H78.8965V29.6445H72.8418V31.6445ZM77.8965 30.6445V36.6992H79.8965V30.6445H77.8965ZM78.8965 35.6992H72.8418V37.6992H78.8965V35.6992ZM71.8418 36.6992V42.7539H73.8418V36.6992H71.8418ZM72.8418 41.7539H66.7871V43.7539H72.8418V41.7539ZM65.7871 42.7539V48.8086H67.7871V42.7539H65.7871ZM66.7871 47.8086H60.7324V49.8086H66.7871V47.8086ZM109.121 170H108.121V171H109.121V170ZM109.121 163.945H110.121V162.945H109.121V163.945ZM103.066 163.945H102.066V164.945H103.066V163.945ZM103.066 157.891H104.066V156.891H103.066V157.891ZM97.0117 157.891H96.0117V158.891H97.0117V157.891ZM97.0117 151.836H98.0117V150.836H97.0117V151.836ZM90.957 151.836H89.957V152.836H90.957V151.836ZM90.957 91.2402V90.2402H89.957V91.2402H90.957ZM97.0117 91.2402V92.2402H98.0117V91.2402H97.0117ZM97.0117 85.1855V84.1855H96.0117V85.1855H97.0117ZM103.066 85.1855V86.1855H104.066V85.1855H103.066ZM103.066 79.1309V78.1309H102.066V79.1309H103.066ZM109.121 79.1309H110.121V78.1309H109.121V79.1309ZM109.121 139.727H108.121V140.727H109.121V139.727ZM115.176 139.727H116.176V138.727H115.176V139.727ZM115.176 145.781H114.176V146.781H115.176V145.781ZM121.23 145.781H122.23V144.781H121.23V145.781ZM121.23 151.836H120.23V152.836H121.23V151.836ZM133.34 151.836H134.34V150.836H133.34V151.836ZM133.34 157.891V158.891H134.34V157.891H133.34ZM127.285 157.891V156.891H126.285V157.891H127.285ZM127.285 163.945V164.945H128.285V163.945H127.285ZM121.23 163.945V162.945H120.23V163.945H121.23ZM121.23 170V171H122.23V170H121.23ZM133.34 151.836H132.34V152.836H133.34V151.836ZM133.34 91.2402H134.34V90.2402H133.34V91.2402ZM127.285 91.2402H126.285V92.2402H127.285V91.2402ZM127.285 85.1855H128.285V84.1855H127.285V85.1855ZM121.23 85.1855H120.23V86.1855H121.23V85.1855ZM121.23 79.1309H122.23V78.1309H121.23V79.1309ZM109.121 79.1309H108.121V80.1309H109.121V79.1309ZM109.121 73.0762V72.0762H108.121V73.0762H109.121ZM115.176 73.0762V74.0762H116.176V73.0762H115.176ZM115.176 66.9727V65.9727H114.176V66.9727H115.176ZM121.23 66.9727V67.9727H122.23V66.9727H121.23ZM121.23 60.918V59.918H120.23V60.918H121.23ZM133.34 60.918H134.34V59.918H133.34V60.918ZM133.34 66.9727H132.34V67.9727H133.34V66.9727ZM139.395 66.9727H140.395V65.9727H139.395V66.9727ZM139.395 73.0762H138.395V74.0762H139.395V73.0762ZM145.498 73.0762H146.498V72.0762H145.498V73.0762ZM145.498 79.1309H144.498V80.1309H145.498V79.1309ZM151.553 79.1309H152.553V78.1309H151.553V79.1309ZM151.553 139.727V140.727H152.553V139.727H151.553ZM145.498 139.727V138.727H144.498V139.727H145.498ZM145.498 145.781V146.781H146.498V145.781H145.498ZM139.395 145.781V144.781H138.395V145.781H139.395ZM139.395 151.836V152.836H140.395V151.836H139.395ZM110.121 170V163.945H108.121V170H110.121ZM109.121 162.945H103.066V164.945H109.121V162.945ZM104.066 163.945V157.891H102.066V163.945H104.066ZM103.066 156.891H97.0117V158.891H103.066V156.891ZM98.0117 157.891V151.836H96.0117V157.891H98.0117ZM97.0117 150.836H90.957V152.836H97.0117V150.836ZM91.957 151.836V91.2402H89.957V151.836H91.957ZM90.957 92.2402H97.0117V90.2402H90.957V92.2402ZM98.0117 91.2402V85.1855H96.0117V91.2402H98.0117ZM97.0117 86.1855H103.066V84.1855H97.0117V86.1855ZM104.066 85.1855V79.1309H102.066V85.1855H104.066ZM103.066 80.1309H109.121V78.1309H103.066V80.1309ZM108.121 79.1309V139.727H110.121V79.1309H108.121ZM109.121 140.727H115.176V138.727H109.121V140.727ZM114.176 139.727V145.781H116.176V139.727H114.176ZM115.176 146.781H121.23V144.781H115.176V146.781ZM120.23 145.781V151.836H122.23V145.781H120.23ZM121.23 152.836H133.34V150.836H121.23V152.836ZM132.34 151.836V157.891H134.34V151.836H132.34ZM133.34 156.891H127.285V158.891H133.34V156.891ZM126.285 157.891V163.945H128.285V157.891H126.285ZM127.285 162.945H121.23V164.945H127.285V162.945ZM120.23 163.945V170H122.23V163.945H120.23ZM121.23 169H109.121V171H121.23V169ZM134.34 151.836V91.2402H132.34V151.836H134.34ZM133.34 90.2402H127.285V92.2402H133.34V90.2402ZM128.285 91.2402V85.1855H126.285V91.2402H128.285ZM127.285 84.1855H121.23V86.1855H127.285V84.1855ZM122.23 85.1855V79.1309H120.23V85.1855H122.23ZM121.23 78.1309H109.121V80.1309H121.23V78.1309ZM110.121 79.1309V73.0762H108.121V79.1309H110.121ZM109.121 74.0762H115.176V72.0762H109.121V74.0762ZM116.176 73.0762V66.9727H114.176V73.0762H116.176ZM115.176 67.9727H121.23V65.9727H115.176V67.9727ZM122.23 66.9727V60.918H120.23V66.9727H122.23ZM121.23 61.918H133.34V59.918H121.23V61.918ZM132.34 60.918V66.9727H134.34V60.918H132.34ZM133.34 67.9727H139.395V65.9727H133.34V67.9727ZM138.395 66.9727V73.0762H140.395V66.9727H138.395ZM139.395 74.0762H145.498V72.0762H139.395V74.0762ZM144.498 73.0762V79.1309H146.498V73.0762H144.498ZM145.498 80.1309H151.553V78.1309H145.498V80.1309ZM150.553 79.1309V139.727H152.553V79.1309H150.553ZM151.553 138.727H145.498V140.727H151.553V138.727ZM144.498 139.727V145.781H146.498V139.727H144.498ZM145.498 144.781H139.395V146.781H145.498V144.781ZM138.395 145.781V151.836H140.395V145.781H138.395ZM139.395 150.836H133.34V152.836H139.395V150.836ZM181.777 79.1309V78.1309H180.777V79.1309H181.777ZM181.777 139.727H180.777V140.727H181.777V139.727ZM187.832 139.727H188.832V138.727H187.832V139.727ZM187.832 145.781H186.832V146.781H187.832V145.781ZM193.887 145.781H194.887V144.781H193.887V145.781ZM193.887 151.836H192.887V152.836H193.887V151.836ZM205.996 151.836V152.836H206.996V151.836H205.996ZM205.996 91.2402H206.996V90.2402H205.996V91.2402ZM199.941 91.2402H198.941V92.2402H199.941V91.2402ZM199.941 85.1855H200.941V84.1855H199.941V85.1855ZM193.887 85.1855H192.887V86.1855H193.887V85.1855ZM193.887 79.1309H194.887V78.1309H193.887V79.1309ZM181.777 79.1309V80.1309H182.777V79.1309H181.777ZM181.777 73.0762V72.0762H180.777V73.0762H181.777ZM187.832 73.0762V74.0762H188.832V73.0762H187.832ZM187.832 66.9727V65.9727H186.832V66.9727H187.832ZM193.887 66.9727V67.9727H194.887V66.9727H193.887ZM193.887 60.918V59.918H192.887V60.918H193.887ZM199.941 60.918H200.941V59.918H199.941V60.918ZM199.941 66.9727H198.941V67.9727H199.941V66.9727ZM205.996 66.9727V67.9727H206.996V66.9727H205.996ZM205.996 30.6445V29.6445H204.996V30.6445H205.996ZM212.051 30.6445V31.6445H213.051V30.6445H212.051ZM212.051 24.5898V23.5898H211.051V24.5898H212.051ZM218.154 24.5898V25.5898H219.154V24.5898H218.154ZM218.154 18.4863V17.4863H217.154V18.4863H218.154ZM224.209 18.4863H225.209V17.4863H224.209V18.4863ZM224.209 151.836H223.209V152.836H224.209V151.836ZM230.264 151.836H231.264V150.836H230.264V151.836ZM230.264 163.945V164.945H231.264V163.945H230.264ZM224.209 163.945V162.945H223.209V163.945H224.209ZM224.209 170V171H225.209V170H224.209ZM218.154 170H217.154V171H218.154V170ZM218.154 163.945H219.154V162.945H218.154V163.945ZM212.051 163.945H211.051V164.945H212.051V163.945ZM212.051 157.891H213.051V156.891H212.051V157.891ZM199.941 157.891V156.891H198.941V157.891H199.941ZM199.941 163.945V164.945H200.941V163.945H199.941ZM193.887 163.945V162.945H192.887V163.945H193.887ZM193.887 170V171H194.887V170H193.887ZM181.777 170H180.777V171H181.777V170ZM181.777 163.945H182.777V162.945H181.777V163.945ZM175.723 163.945H174.723V164.945H175.723V163.945ZM175.723 157.891H176.723V156.891H175.723V157.891ZM169.668 157.891H168.668V158.891H169.668V157.891ZM169.668 151.836H170.668V150.836H169.668V151.836ZM163.613 151.836H162.613V152.836H163.613V151.836ZM163.613 91.2402V90.2402H162.613V91.2402H163.613ZM169.668 91.2402V92.2402H170.668V91.2402H169.668ZM169.668 85.1855V84.1855H168.668V85.1855H169.668ZM175.723 85.1855V86.1855H176.723V85.1855H175.723ZM175.723 79.1309V78.1309H174.723V79.1309H175.723ZM180.777 79.1309V139.727H182.777V79.1309H180.777ZM181.777 140.727H187.832V138.727H181.777V140.727ZM186.832 139.727V145.781H188.832V139.727H186.832ZM187.832 146.781H193.887V144.781H187.832V146.781ZM192.887 145.781V151.836H194.887V145.781H192.887ZM193.887 152.836H205.996V150.836H193.887V152.836ZM206.996 151.836V91.2402H204.996V151.836H206.996ZM205.996 90.2402H199.941V92.2402H205.996V90.2402ZM200.941 91.2402V85.1855H198.941V91.2402H200.941ZM199.941 84.1855H193.887V86.1855H199.941V84.1855ZM194.887 85.1855V79.1309H192.887V85.1855H194.887ZM193.887 78.1309H181.777V80.1309H193.887V78.1309ZM182.777 79.1309V73.0762H180.777V79.1309H182.777ZM181.777 74.0762H187.832V72.0762H181.777V74.0762ZM188.832 73.0762V66.9727H186.832V73.0762H188.832ZM187.832 67.9727H193.887V65.9727H187.832V67.9727ZM194.887 66.9727V60.918H192.887V66.9727H194.887ZM193.887 61.918H199.941V59.918H193.887V61.918ZM198.941 60.918V66.9727H200.941V60.918H198.941ZM199.941 67.9727H205.996V65.9727H199.941V67.9727ZM206.996 66.9727V30.6445H204.996V66.9727H206.996ZM205.996 31.6445H212.051V29.6445H205.996V31.6445ZM213.051 30.6445V24.5898H211.051V30.6445H213.051ZM212.051 25.5898H218.154V23.5898H212.051V25.5898ZM219.154 24.5898V18.4863H217.154V24.5898H219.154ZM218.154 19.4863H224.209V17.4863H218.154V19.4863ZM223.209 18.4863V151.836H225.209V18.4863H223.209ZM224.209 152.836H230.264V150.836H224.209V152.836ZM229.264 151.836V163.945H231.264V151.836H229.264ZM230.264 162.945H224.209V164.945H230.264V162.945ZM223.209 163.945V170H225.209V163.945H223.209ZM224.209 169H218.154V171H224.209V169ZM219.154 170V163.945H217.154V170H219.154ZM218.154 162.945H212.051V164.945H218.154V162.945ZM213.051 163.945V157.891H211.051V163.945H213.051ZM212.051 156.891H199.941V158.891H212.051V156.891ZM198.941 157.891V163.945H200.941V157.891H198.941ZM199.941 162.945H193.887V164.945H199.941V162.945ZM192.887 163.945V170H194.887V163.945H192.887ZM193.887 169H181.777V171H193.887V169ZM182.777 170V163.945H180.777V170H182.777ZM181.777 162.945H175.723V164.945H181.777V162.945ZM176.723 163.945V157.891H174.723V163.945H176.723ZM175.723 156.891H169.668V158.891H175.723V156.891ZM170.668 157.891V151.836H168.668V157.891H170.668ZM169.668 150.836H163.613V152.836H169.668V150.836ZM164.613 151.836V91.2402H162.613V151.836H164.613ZM163.613 92.2402H169.668V90.2402H163.613V92.2402ZM170.668 91.2402V85.1855H168.668V91.2402H170.668ZM169.668 86.1855H175.723V84.1855H169.668V86.1855ZM176.723 85.1855V79.1309H174.723V85.1855H176.723ZM175.723 80.1309H181.777V78.1309H175.723V80.1309ZM266.543 127.617H265.543V128.617H266.543V127.617ZM266.543 121.562V120.562H265.543V121.562H266.543ZM272.598 121.562H273.598V120.562H272.598V121.562ZM272.598 127.617V128.617H273.598V127.617H272.598ZM272.598 121.562H271.598V122.562H272.598V121.562ZM272.598 115.459V114.459H271.598V115.459H272.598ZM278.652 115.459H279.652V114.459H278.652V115.459ZM278.652 121.562V122.562H279.652V121.562H278.652ZM284.707 151.836H283.707V152.836H284.707V151.836ZM284.707 127.617V126.617H283.707V127.617H284.707ZM290.762 127.617V128.617H291.762V127.617H290.762ZM290.762 121.562V120.562H289.762V121.562H290.762ZM296.865 121.562V122.562H297.865V121.562H296.865ZM296.865 115.459V114.459H295.865V115.459H296.865ZM302.92 115.459H303.92V114.459H302.92V115.459ZM302.92 139.727V140.727H303.92V139.727H302.92ZM296.865 139.727V138.727H295.865V139.727H296.865ZM296.865 145.781V146.781H297.865V145.781H296.865ZM290.762 145.781V144.781H289.762V145.781H290.762ZM290.762 151.836V152.836H291.762V151.836H290.762ZM278.652 115.459H277.652V116.459H278.652V115.459ZM278.652 109.404V108.404H277.652V109.404H278.652ZM284.707 109.404H285.707V108.404H284.707V109.404ZM284.707 115.459V116.459H285.707V115.459H284.707ZM260.488 170H259.488V171H260.488V170ZM260.488 163.945H261.488V162.945H260.488V163.945ZM254.434 163.945H253.434V164.945H254.434V163.945ZM254.434 157.891H255.434V156.891H254.434V157.891ZM248.379 157.891H247.379V158.891H248.379V157.891ZM248.379 151.836H249.379V150.836H248.379V151.836ZM242.324 151.836H241.324V152.836H242.324V151.836ZM242.324 91.2402V90.2402H241.324V91.2402H242.324ZM248.379 91.2402V92.2402H249.379V91.2402H248.379ZM248.379 85.1855V84.1855H247.379V85.1855H248.379ZM254.434 85.1855V86.1855H255.434V85.1855H254.434ZM254.434 79.1309V78.1309H253.434V79.1309H254.434ZM260.488 79.1309H261.488V78.1309H260.488V79.1309ZM260.488 127.617H259.488V128.617H260.488V127.617ZM266.543 127.617H267.543V126.617H266.543V127.617ZM266.543 133.672V134.672H267.543V133.672H266.543ZM260.488 133.672V132.672H259.488V133.672H260.488ZM260.488 139.727H259.488V140.727H260.488V139.727ZM266.543 139.727H267.543V138.727H266.543V139.727ZM266.543 145.781H265.543V146.781H266.543V145.781ZM272.598 145.781H273.598V144.781H272.598V145.781ZM272.598 151.836H271.598V152.836H272.598V151.836ZM284.707 151.836H285.707V150.836H284.707V151.836ZM284.707 157.891V158.891H285.707V157.891H284.707ZM278.652 157.891V156.891H277.652V157.891H278.652ZM278.652 163.945V164.945H279.652V163.945H278.652ZM272.598 163.945V162.945H271.598V163.945H272.598ZM272.598 170V171H273.598V170H272.598ZM284.707 109.404H283.707V110.404H284.707V109.404ZM284.707 91.2402H285.707V90.2402H284.707V91.2402ZM278.652 91.2402H277.652V92.2402H278.652V91.2402ZM278.652 85.1855H279.652V84.1855H278.652V85.1855ZM272.598 85.1855H271.598V86.1855H272.598V85.1855ZM272.598 79.1309H273.598V78.1309H272.598V79.1309ZM260.488 79.1309H259.488V80.1309H260.488V79.1309ZM260.488 73.0762V72.0762H259.488V73.0762H260.488ZM266.543 73.0762V74.0762H267.543V73.0762H266.543ZM266.543 66.9727V65.9727H265.543V66.9727H266.543ZM272.598 66.9727V67.9727H273.598V66.9727H272.598ZM272.598 60.918V59.918H271.598V60.918H272.598ZM284.707 60.918H285.707V59.918H284.707V60.918ZM284.707 66.9727H283.707V67.9727H284.707V66.9727ZM290.762 66.9727H291.762V65.9727H290.762V66.9727ZM290.762 73.0762H289.762V74.0762H290.762V73.0762ZM296.865 73.0762H297.865V72.0762H296.865V73.0762ZM296.865 79.1309H295.865V80.1309H296.865V79.1309ZM302.92 79.1309H303.92V78.1309H302.92V79.1309ZM302.92 97.2949V98.2949H303.92V97.2949H302.92ZM296.865 97.2949V96.2949H295.865V97.2949H296.865ZM296.865 103.35V104.35H297.865V103.35H296.865ZM290.762 103.35V102.35H289.762V103.35H290.762ZM290.762 109.404V110.404H291.762V109.404H290.762ZM267.543 127.617V121.562H265.543V127.617H267.543ZM266.543 122.562H272.598V120.562H266.543V122.562ZM271.598 121.562V127.617H273.598V121.562H271.598ZM272.598 126.617H266.543V128.617H272.598V126.617ZM273.598 121.562V115.459H271.598V121.562H273.598ZM272.598 116.459H278.652V114.459H272.598V116.459ZM277.652 115.459V121.562H279.652V115.459H277.652ZM278.652 120.562H272.598V122.562H278.652V120.562ZM285.707 151.836V127.617H283.707V151.836H285.707ZM284.707 128.617H290.762V126.617H284.707V128.617ZM291.762 127.617V121.562H289.762V127.617H291.762ZM290.762 122.562H296.865V120.562H290.762V122.562ZM297.865 121.562V115.459H295.865V121.562H297.865ZM296.865 116.459H302.92V114.459H296.865V116.459ZM301.92 115.459V139.727H303.92V115.459H301.92ZM302.92 138.727H296.865V140.727H302.92V138.727ZM295.865 139.727V145.781H297.865V139.727H295.865ZM296.865 144.781H290.762V146.781H296.865V144.781ZM289.762 145.781V151.836H291.762V145.781H289.762ZM290.762 150.836H284.707V152.836H290.762V150.836ZM279.652 115.459V109.404H277.652V115.459H279.652ZM278.652 110.404H284.707V108.404H278.652V110.404ZM283.707 109.404V115.459H285.707V109.404H283.707ZM284.707 114.459H278.652V116.459H284.707V114.459ZM261.488 170V163.945H259.488V170H261.488ZM260.488 162.945H254.434V164.945H260.488V162.945ZM255.434 163.945V157.891H253.434V163.945H255.434ZM254.434 156.891H248.379V158.891H254.434V156.891ZM249.379 157.891V151.836H247.379V157.891H249.379ZM248.379 150.836H242.324V152.836H248.379V150.836ZM243.324 151.836V91.2402H241.324V151.836H243.324ZM242.324 92.2402H248.379V90.2402H242.324V92.2402ZM249.379 91.2402V85.1855H247.379V91.2402H249.379ZM248.379 86.1855H254.434V84.1855H248.379V86.1855ZM255.434 85.1855V79.1309H253.434V85.1855H255.434ZM254.434 80.1309H260.488V78.1309H254.434V80.1309ZM259.488 79.1309V127.617H261.488V79.1309H259.488ZM260.488 128.617H266.543V126.617H260.488V128.617ZM265.543 127.617V133.672H267.543V127.617H265.543ZM266.543 132.672H260.488V134.672H266.543V132.672ZM259.488 133.672V139.727H261.488V133.672H259.488ZM260.488 140.727H266.543V138.727H260.488V140.727ZM265.543 139.727V145.781H267.543V139.727H265.543ZM266.543 146.781H272.598V144.781H266.543V146.781ZM271.598 145.781V151.836H273.598V145.781H271.598ZM272.598 152.836H284.707V150.836H272.598V152.836ZM283.707 151.836V157.891H285.707V151.836H283.707ZM284.707 156.891H278.652V158.891H284.707V156.891ZM277.652 157.891V163.945H279.652V157.891H277.652ZM278.652 162.945H272.598V164.945H278.652V162.945ZM271.598 163.945V170H273.598V163.945H271.598ZM272.598 169H260.488V171H272.598V169ZM285.707 109.404V91.2402H283.707V109.404H285.707ZM284.707 90.2402H278.652V92.2402H284.707V90.2402ZM279.652 91.2402V85.1855H277.652V91.2402H279.652ZM278.652 84.1855H272.598V86.1855H278.652V84.1855ZM273.598 85.1855V79.1309H271.598V85.1855H273.598ZM272.598 78.1309H260.488V80.1309H272.598V78.1309ZM261.488 79.1309V73.0762H259.488V79.1309H261.488ZM260.488 74.0762H266.543V72.0762H260.488V74.0762ZM267.543 73.0762V66.9727H265.543V73.0762H267.543ZM266.543 67.9727H272.598V65.9727H266.543V67.9727ZM273.598 66.9727V60.918H271.598V66.9727H273.598ZM272.598 61.918H284.707V59.918H272.598V61.918ZM283.707 60.918V66.9727H285.707V60.918H283.707ZM284.707 67.9727H290.762V65.9727H284.707V67.9727ZM289.762 66.9727V73.0762H291.762V66.9727H289.762ZM290.762 74.0762H296.865V72.0762H290.762V74.0762ZM295.865 73.0762V79.1309H297.865V73.0762H295.865ZM296.865 80.1309H302.92V78.1309H296.865V80.1309ZM301.92 79.1309V97.2949H303.92V79.1309H301.92ZM302.92 96.2949H296.865V98.2949H302.92V96.2949ZM295.865 97.2949V103.35H297.865V97.2949H295.865ZM296.865 102.35H290.762V104.35H296.865V102.35ZM289.762 103.35V109.404H291.762V103.35H289.762ZM290.762 108.404H284.707V110.404H290.762V108.404ZM321.035 85.1855H320.035V86.1855H321.035V85.1855ZM321.035 79.1309H322.035V78.1309H321.035V79.1309ZM314.98 79.1309H313.98V80.1309H314.98V79.1309ZM314.98 42.7539V41.7539H313.98V42.7539H314.98ZM321.035 42.7539V43.7539H322.035V42.7539H321.035ZM321.035 36.6992V35.6992H320.035V36.6992H321.035ZM327.09 36.6992V37.6992H328.09V36.6992H327.09ZM327.09 30.6445V29.6445H326.09V30.6445H327.09ZM333.145 30.6445H334.145V29.6445H333.145V30.6445ZM333.145 66.9727H332.145V67.9727H333.145V66.9727ZM339.199 66.9727H340.199V65.9727H339.199V66.9727ZM339.199 73.0762V74.0762H340.199V73.0762H339.199ZM333.145 73.0762V72.0762H332.145V73.0762H333.145ZM333.145 79.1309V80.1309H334.145V79.1309H333.145ZM327.09 79.1309V78.1309H326.09V79.1309H327.09ZM327.09 85.1855V86.1855H328.09V85.1855H327.09ZM351.309 170H350.309V171H351.309V170ZM351.309 42.7539V41.7539H350.309V42.7539H351.309ZM357.363 42.7539V43.7539H358.363V42.7539H357.363ZM357.363 36.6992V35.6992H356.363V36.6992H357.363ZM363.418 36.6992V37.6992H364.418V36.6992H363.418ZM363.418 30.6445V29.6445H362.418V30.6445H363.418ZM369.521 30.6445H370.521V29.6445H369.521V30.6445ZM369.521 73.0762H368.521V74.0762H369.521V73.0762ZM411.904 73.0762H412.904V72.0762H411.904V73.0762ZM411.904 79.1309V80.1309H412.904V79.1309H411.904ZM405.85 79.1309V78.1309H404.85V79.1309H405.85ZM405.85 85.1855V86.1855H406.85V85.1855H405.85ZM369.521 85.1855V84.1855H368.521V85.1855H369.521ZM369.521 151.836H368.521V152.836H369.521V151.836ZM424.062 151.836H425.062V150.836H424.062V151.836ZM424.062 157.891V158.891H425.062V157.891H424.062ZM418.008 157.891V156.891H417.008V157.891H418.008ZM418.008 163.945V164.945H419.008V163.945H418.008ZM411.904 163.945V162.945H410.904V163.945H411.904ZM411.904 170V171H412.904V170H411.904ZM333.145 30.6445H332.145V31.6445H333.145V30.6445ZM333.145 24.5898V23.5898H332.145V24.5898H333.145ZM339.199 24.5898H340.199V23.5898H339.199V24.5898ZM339.199 30.6445V31.6445H340.199V30.6445H339.199ZM339.199 24.5898H338.199V25.5898H339.199V24.5898ZM339.199 18.4863V17.4863H338.199V18.4863H339.199ZM345.254 18.4863H346.254V17.4863H345.254V18.4863ZM345.254 24.5898V25.5898H346.254V24.5898H345.254ZM345.254 18.4863H344.254V19.4863H345.254V18.4863ZM345.254 12.4316V11.4316H344.254V12.4316H345.254ZM351.309 12.4316V13.4316H352.309V12.4316H351.309ZM351.309 6.37695V5.37695H350.309V6.37695H351.309ZM363.418 6.37695V7.37695H364.418V6.37695H363.418ZM363.418 0.322266V-0.677734H362.418V0.322266H363.418ZM430.117 0.322266H431.117V-0.677734H430.117V0.322266ZM430.117 6.37695V7.37695H431.117V6.37695H430.117ZM424.062 6.37695V5.37695H423.062V6.37695H424.062ZM424.062 12.4316V13.4316H425.062V12.4316H424.062ZM418.008 12.4316V11.4316H417.008V12.4316H418.008ZM418.008 18.4863V19.4863H419.008V18.4863H418.008ZM322.035 85.1855V79.1309H320.035V85.1855H322.035ZM321.035 78.1309H314.98V80.1309H321.035V78.1309ZM315.98 79.1309V42.7539H313.98V79.1309H315.98ZM314.98 43.7539H321.035V41.7539H314.98V43.7539ZM322.035 42.7539V36.6992H320.035V42.7539H322.035ZM321.035 37.6992H327.09V35.6992H321.035V37.6992ZM328.09 36.6992V30.6445H326.09V36.6992H328.09ZM327.09 31.6445H333.145V29.6445H327.09V31.6445ZM332.145 30.6445V66.9727H334.145V30.6445H332.145ZM333.145 67.9727H339.199V65.9727H333.145V67.9727ZM338.199 66.9727V73.0762H340.199V66.9727H338.199ZM339.199 72.0762H333.145V74.0762H339.199V72.0762ZM332.145 73.0762V79.1309H334.145V73.0762H332.145ZM333.145 78.1309H327.09V80.1309H333.145V78.1309ZM326.09 79.1309V85.1855H328.09V79.1309H326.09ZM327.09 84.1855H321.035V86.1855H327.09V84.1855ZM352.309 170V42.7539H350.309V170H352.309ZM351.309 43.7539H357.363V41.7539H351.309V43.7539ZM358.363 42.7539V36.6992H356.363V42.7539H358.363ZM357.363 37.6992H363.418V35.6992H357.363V37.6992ZM364.418 36.6992V30.6445H362.418V36.6992H364.418ZM363.418 31.6445H369.521V29.6445H363.418V31.6445ZM368.521 30.6445V73.0762H370.521V30.6445H368.521ZM369.521 74.0762H411.904V72.0762H369.521V74.0762ZM410.904 73.0762V79.1309H412.904V73.0762H410.904ZM411.904 78.1309H405.85V80.1309H411.904V78.1309ZM404.85 79.1309V85.1855H406.85V79.1309H404.85ZM405.85 84.1855H369.521V86.1855H405.85V84.1855ZM368.521 85.1855V151.836H370.521V85.1855H368.521ZM369.521 152.836H424.062V150.836H369.521V152.836ZM423.062 151.836V157.891H425.062V151.836H423.062ZM424.062 156.891H418.008V158.891H424.062V156.891ZM417.008 157.891V163.945H419.008V157.891H417.008ZM418.008 162.945H411.904V164.945H418.008V162.945ZM410.904 163.945V170H412.904V163.945H410.904ZM411.904 169H351.309V171H411.904V169ZM334.145 30.6445V24.5898H332.145V30.6445H334.145ZM333.145 25.5898H339.199V23.5898H333.145V25.5898ZM338.199 24.5898V30.6445H340.199V24.5898H338.199ZM339.199 29.6445H333.145V31.6445H339.199V29.6445ZM340.199 24.5898V18.4863H338.199V24.5898H340.199ZM339.199 19.4863H345.254V17.4863H339.199V19.4863ZM344.254 18.4863V24.5898H346.254V18.4863H344.254ZM345.254 23.5898H339.199V25.5898H345.254V23.5898ZM346.254 18.4863V12.4316H344.254V18.4863H346.254ZM345.254 13.4316H351.309V11.4316H345.254V13.4316ZM352.309 12.4316V6.37695H350.309V12.4316H352.309ZM351.309 7.37695H363.418V5.37695H351.309V7.37695ZM364.418 6.37695V0.322266H362.418V6.37695H364.418ZM363.418 1.32227H430.117V-0.677734H363.418V1.32227ZM429.117 0.322266V6.37695H431.117V0.322266H429.117ZM430.117 5.37695H424.062V7.37695H430.117V5.37695ZM423.062 6.37695V12.4316H425.062V6.37695H423.062ZM424.062 11.4316H418.008V13.4316H424.062V11.4316ZM417.008 12.4316V18.4863H419.008V12.4316H417.008ZM418.008 17.4863H345.254V19.4863H418.008V17.4863ZM442.324 170H441.324V171H442.324V170ZM442.324 139.727V138.727H441.324V139.727H442.324ZM448.379 139.727V140.727H449.379V139.727H448.379ZM448.379 133.672V132.672H447.379V133.672H448.379ZM454.434 133.672V134.672H455.434V133.672H454.434ZM454.434 127.617V126.617H453.434V127.617H454.434ZM460.488 127.617H461.488V126.617H460.488V127.617ZM460.488 157.891V158.891H461.488V157.891H460.488ZM454.434 157.891V156.891H453.434V157.891H454.434ZM454.434 163.945V164.945H455.434V163.945H454.434ZM448.379 163.945V162.945H447.379V163.945H448.379ZM448.379 170V171H449.379V170H448.379ZM484.707 170H483.707V171H484.707V170ZM484.707 121.562H485.707V120.562H484.707V121.562ZM478.652 121.562H477.652V122.562H478.652V121.562ZM478.652 115.459H479.652V114.459H478.652V115.459ZM472.598 115.459H471.598V116.459H472.598V115.459ZM472.598 109.404V108.404H471.598V109.404H472.598ZM478.652 109.404V110.404H479.652V109.404H478.652ZM478.652 103.35V102.35H477.652V103.35H478.652ZM484.707 103.35H485.707V102.35H484.707V103.35ZM484.707 109.404H483.707V110.404H484.707V109.404ZM496.865 109.404H497.865V108.404H496.865V109.404ZM496.865 115.459H495.865V116.459H496.865V115.459ZM502.92 115.459H503.92V114.459H502.92V115.459ZM502.92 157.891V158.891H503.92V157.891H502.92ZM496.865 157.891V156.891H495.865V157.891H496.865ZM496.865 163.945V164.945H497.865V163.945H496.865ZM490.762 163.945V162.945H489.762V163.945H490.762ZM490.762 170V171H491.762V170H490.762ZM460.488 127.617H459.488V128.617H460.488V127.617ZM460.488 121.562H461.488V120.562H460.488V121.562ZM448.379 121.562H447.379V122.562H448.379V121.562ZM448.379 115.459H449.379V114.459H448.379V115.459ZM442.324 115.459H441.324V116.459H442.324V115.459ZM442.324 73.0762V72.0762H441.324V73.0762H442.324ZM448.379 73.0762V74.0762H449.379V73.0762H448.379ZM448.379 66.9727V65.9727H447.379V66.9727H448.379ZM454.434 66.9727V67.9727H455.434V66.9727H454.434ZM454.434 60.918V59.918H453.434V60.918H454.434ZM460.488 60.918H461.488V59.918H460.488V60.918ZM460.488 109.404H459.488V110.404H460.488V109.404ZM466.543 109.404H467.543V108.404H466.543V109.404ZM466.543 115.459H465.543V116.459H466.543V115.459ZM472.598 115.459H473.598V114.459H472.598V115.459ZM472.598 121.562V122.562H473.598V121.562H472.598ZM466.543 121.562V120.562H465.543V121.562H466.543ZM466.543 127.617V128.617H467.543V127.617H466.543ZM484.707 103.35H483.707V104.35H484.707V103.35ZM484.707 73.0762V72.0762H483.707V73.0762H484.707ZM490.762 73.0762V74.0762H491.762V73.0762H490.762ZM490.762 66.9727V65.9727H489.762V66.9727H490.762ZM496.865 66.9727V67.9727H497.865V66.9727H496.865ZM496.865 60.918V59.918H495.865V60.918H496.865ZM502.92 60.918H503.92V59.918H502.92V60.918ZM502.92 91.2402V92.2402H503.92V91.2402H502.92ZM496.865 91.2402V90.2402H495.865V91.2402H496.865ZM496.865 97.2949V98.2949H497.865V97.2949H496.865ZM490.762 97.2949V96.2949H489.762V97.2949H490.762ZM490.762 103.35V104.35H491.762V103.35H490.762ZM443.324 170V139.727H441.324V170H443.324ZM442.324 140.727H448.379V138.727H442.324V140.727ZM449.379 139.727V133.672H447.379V139.727H449.379ZM448.379 134.672H454.434V132.672H448.379V134.672ZM455.434 133.672V127.617H453.434V133.672H455.434ZM454.434 128.617H460.488V126.617H454.434V128.617ZM459.488 127.617V157.891H461.488V127.617H459.488ZM460.488 156.891H454.434V158.891H460.488V156.891ZM453.434 157.891V163.945H455.434V157.891H453.434ZM454.434 162.945H448.379V164.945H454.434V162.945ZM447.379 163.945V170H449.379V163.945H447.379ZM448.379 169H442.324V171H448.379V169ZM485.707 170V121.562H483.707V170H485.707ZM484.707 120.562H478.652V122.562H484.707V120.562ZM479.652 121.562V115.459H477.652V121.562H479.652ZM478.652 114.459H472.598V116.459H478.652V114.459ZM473.598 115.459V109.404H471.598V115.459H473.598ZM472.598 110.404H478.652V108.404H472.598V110.404ZM479.652 109.404V103.35H477.652V109.404H479.652ZM478.652 104.35H484.707V102.35H478.652V104.35ZM483.707 103.35V109.404H485.707V103.35H483.707ZM484.707 110.404H496.865V108.404H484.707V110.404ZM495.865 109.404V115.459H497.865V109.404H495.865ZM496.865 116.459H502.92V114.459H496.865V116.459ZM501.92 115.459V157.891H503.92V115.459H501.92ZM502.92 156.891H496.865V158.891H502.92V156.891ZM495.865 157.891V163.945H497.865V157.891H495.865ZM496.865 162.945H490.762V164.945H496.865V162.945ZM489.762 163.945V170H491.762V163.945H489.762ZM490.762 169H484.707V171H490.762V169ZM461.488 127.617V121.562H459.488V127.617H461.488ZM460.488 120.562H448.379V122.562H460.488V120.562ZM449.379 121.562V115.459H447.379V121.562H449.379ZM448.379 114.459H442.324V116.459H448.379V114.459ZM443.324 115.459V73.0762H441.324V115.459H443.324ZM442.324 74.0762H448.379V72.0762H442.324V74.0762ZM449.379 73.0762V66.9727H447.379V73.0762H449.379ZM448.379 67.9727H454.434V65.9727H448.379V67.9727ZM455.434 66.9727V60.918H453.434V66.9727H455.434ZM454.434 61.918H460.488V59.918H454.434V61.918ZM459.488 60.918V109.404H461.488V60.918H459.488ZM460.488 110.404H466.543V108.404H460.488V110.404ZM465.543 109.404V115.459H467.543V109.404H465.543ZM466.543 116.459H472.598V114.459H466.543V116.459ZM471.598 115.459V121.562H473.598V115.459H471.598ZM472.598 120.562H466.543V122.562H472.598V120.562ZM465.543 121.562V127.617H467.543V121.562H465.543ZM466.543 126.617H460.488V128.617H466.543V126.617ZM485.707 103.35V73.0762H483.707V103.35H485.707ZM484.707 74.0762H490.762V72.0762H484.707V74.0762ZM491.762 73.0762V66.9727H489.762V73.0762H491.762ZM490.762 67.9727H496.865V65.9727H490.762V67.9727ZM497.865 66.9727V60.918H495.865V66.9727H497.865ZM496.865 61.918H502.92V59.918H496.865V61.918ZM501.92 60.918V91.2402H503.92V60.918H501.92ZM502.92 90.2402H496.865V92.2402H502.92V90.2402ZM495.865 91.2402V97.2949H497.865V91.2402H495.865ZM496.865 96.2949H490.762V98.2949H496.865V96.2949ZM489.762 97.2949V103.35H491.762V97.2949H489.762ZM490.762 102.35H484.707V104.35H490.762V102.35ZM557.363 157.891V158.891H558.363V157.891H557.363ZM557.363 91.2402H558.363V90.2402H557.363V91.2402ZM551.309 91.2402H550.309V92.2402H551.309V91.2402ZM551.309 85.1855H552.309V84.1855H551.309V85.1855ZM545.254 85.1855H544.254V86.1855H545.254V85.1855ZM545.254 79.1309H546.254V78.1309H545.254V79.1309ZM533.145 79.1309V78.1309H532.145V79.1309H533.145ZM533.145 145.781H532.145V146.781H533.145V145.781ZM539.199 145.781H540.199V144.781H539.199V145.781ZM539.199 151.836H538.199V152.836H539.199V151.836ZM545.254 151.836H546.254V150.836H545.254V151.836ZM545.254 157.891H544.254V158.891H545.254V157.891ZM557.363 157.891V156.891H556.363V157.891H557.363ZM557.363 163.945V164.945H558.363V163.945H557.363ZM551.309 163.945V162.945H550.309V163.945H551.309ZM551.309 170V171H552.309V170H551.309ZM539.199 170H538.199V171H539.199V170ZM539.199 163.945H540.199V162.945H539.199V163.945ZM533.145 163.945V162.945H532.145V163.945H533.145ZM533.145 206.328V207.328H534.145V206.328H533.145ZM527.09 206.328V205.328H526.09V206.328H527.09ZM527.09 212.383V213.383H528.09V212.383H527.09ZM521.035 212.383V211.383H520.035V212.383H521.035ZM521.035 218.438V219.438H522.035V218.438H521.035ZM514.98 218.438H513.98V219.438H514.98V218.438ZM514.98 73.0762V72.0762H513.98V73.0762H514.98ZM521.035 73.0762V74.0762H522.035V73.0762H521.035ZM521.035 66.9727V65.9727H520.035V66.9727H521.035ZM527.09 66.9727V67.9727H528.09V66.9727H527.09ZM527.09 60.918V59.918H526.09V60.918H527.09ZM533.145 60.918H534.145V59.918H533.145V60.918ZM533.145 73.0762H532.145V74.0762H533.145V73.0762ZM539.199 73.0762V74.0762H540.199V73.0762H539.199ZM539.199 66.9727V65.9727H538.199V66.9727H539.199ZM545.254 66.9727V67.9727H546.254V66.9727H545.254ZM545.254 60.918V59.918H544.254V60.918H545.254ZM557.363 60.918H558.363V59.918H557.363V60.918ZM557.363 66.9727H556.363V67.9727H557.363V66.9727ZM563.418 66.9727H564.418V65.9727H563.418V66.9727ZM563.418 73.0762H562.418V74.0762H563.418V73.0762ZM569.521 73.0762H570.521V72.0762H569.521V73.0762ZM569.521 79.1309H568.521V80.1309H569.521V79.1309ZM575.576 79.1309H576.576V78.1309H575.576V79.1309ZM575.576 145.781V146.781H576.576V145.781H575.576ZM569.521 145.781V144.781H568.521V145.781H569.521ZM569.521 151.836V152.836H570.521V151.836H569.521ZM563.418 151.836V150.836H562.418V151.836H563.418ZM563.418 157.891V158.891H564.418V157.891H563.418ZM558.363 157.891V91.2402H556.363V157.891H558.363ZM557.363 90.2402H551.309V92.2402H557.363V90.2402ZM552.309 91.2402V85.1855H550.309V91.2402H552.309ZM551.309 84.1855H545.254V86.1855H551.309V84.1855ZM546.254 85.1855V79.1309H544.254V85.1855H546.254ZM545.254 78.1309H533.145V80.1309H545.254V78.1309ZM532.145 79.1309V145.781H534.145V79.1309H532.145ZM533.145 146.781H539.199V144.781H533.145V146.781ZM538.199 145.781V151.836H540.199V145.781H538.199ZM539.199 152.836H545.254V150.836H539.199V152.836ZM544.254 151.836V157.891H546.254V151.836H544.254ZM545.254 158.891H557.363V156.891H545.254V158.891ZM556.363 157.891V163.945H558.363V157.891H556.363ZM557.363 162.945H551.309V164.945H557.363V162.945ZM550.309 163.945V170H552.309V163.945H550.309ZM551.309 169H539.199V171H551.309V169ZM540.199 170V163.945H538.199V170H540.199ZM539.199 162.945H533.145V164.945H539.199V162.945ZM532.145 163.945V206.328H534.145V163.945H532.145ZM533.145 205.328H527.09V207.328H533.145V205.328ZM526.09 206.328V212.383H528.09V206.328H526.09ZM527.09 211.383H521.035V213.383H527.09V211.383ZM520.035 212.383V218.438H522.035V212.383H520.035ZM521.035 217.438H514.98V219.438H521.035V217.438ZM515.98 218.438V73.0762H513.98V218.438H515.98ZM514.98 74.0762H521.035V72.0762H514.98V74.0762ZM522.035 73.0762V66.9727H520.035V73.0762H522.035ZM521.035 67.9727H527.09V65.9727H521.035V67.9727ZM528.09 66.9727V60.918H526.09V66.9727H528.09ZM527.09 61.918H533.145V59.918H527.09V61.918ZM532.145 60.918V73.0762H534.145V60.918H532.145ZM533.145 74.0762H539.199V72.0762H533.145V74.0762ZM540.199 73.0762V66.9727H538.199V73.0762H540.199ZM539.199 67.9727H545.254V65.9727H539.199V67.9727ZM546.254 66.9727V60.918H544.254V66.9727H546.254ZM545.254 61.918H557.363V59.918H545.254V61.918ZM556.363 60.918V66.9727H558.363V60.918H556.363ZM557.363 67.9727H563.418V65.9727H557.363V67.9727ZM562.418 66.9727V73.0762H564.418V66.9727H562.418ZM563.418 74.0762H569.521V72.0762H563.418V74.0762ZM568.521 73.0762V79.1309H570.521V73.0762H568.521ZM569.521 80.1309H575.576V78.1309H569.521V80.1309ZM574.576 79.1309V145.781H576.576V79.1309H574.576ZM575.576 144.781H569.521V146.781H575.576V144.781ZM568.521 145.781V151.836H570.521V145.781H568.521ZM569.521 150.836H563.418V152.836H569.521V150.836ZM562.418 151.836V157.891H564.418V151.836H562.418ZM563.418 156.891H557.363V158.891H563.418V156.891ZM587.637 170H586.637V171H587.637V170ZM587.637 73.0762V72.0762H586.637V73.0762H587.637ZM593.691 73.0762V74.0762H594.691V73.0762H593.691ZM593.691 66.9727V65.9727H592.691V66.9727H593.691ZM599.746 66.9727V67.9727H600.746V66.9727H599.746ZM599.746 60.918V59.918H598.746V60.918H599.746ZM605.801 60.918H606.801V59.918H605.801V60.918ZM605.801 73.0762H604.801V74.0762H605.801V73.0762ZM611.855 73.0762V74.0762H612.855V73.0762H611.855ZM611.855 66.9727V65.9727H610.855V66.9727H611.855ZM617.91 66.9727V67.9727H618.91V66.9727H617.91ZM617.91 60.918V59.918H616.91V60.918H617.91ZM630.02 60.918H631.02V59.918H630.02V60.918ZM630.02 66.9727H629.02V67.9727H630.02V66.9727ZM636.074 66.9727H637.074V65.9727H636.074V66.9727ZM636.074 73.0762H635.074V74.0762H636.074V73.0762ZM642.178 73.0762H643.178V72.0762H642.178V73.0762ZM642.178 79.1309V80.1309H643.178V79.1309H642.178ZM636.074 79.1309V78.1309H635.074V79.1309H636.074ZM636.074 85.1855V86.1855H637.074V85.1855H636.074ZM630.02 85.1855V84.1855H629.02V85.1855H630.02ZM630.02 91.2402V92.2402H631.02V91.2402H630.02ZM623.965 91.2402H622.965V92.2402H623.965V91.2402ZM623.965 85.1855H624.965V84.1855H623.965V85.1855ZM617.91 85.1855H616.91V86.1855H617.91V85.1855ZM617.91 79.1309H618.91V78.1309H617.91V79.1309ZM605.801 79.1309V78.1309H604.801V79.1309H605.801ZM605.801 157.891V158.891H606.801V157.891H605.801ZM599.746 157.891V156.891H598.746V157.891H599.746ZM599.746 163.945V164.945H600.746V163.945H599.746ZM593.691 163.945V162.945H592.691V163.945H593.691ZM593.691 170V171H594.691V170H593.691ZM588.637 170V73.0762H586.637V170H588.637ZM587.637 74.0762H593.691V72.0762H587.637V74.0762ZM594.691 73.0762V66.9727H592.691V73.0762H594.691ZM593.691 67.9727H599.746V65.9727H593.691V67.9727ZM600.746 66.9727V60.918H598.746V66.9727H600.746ZM599.746 61.918H605.801V59.918H599.746V61.918ZM604.801 60.918V73.0762H606.801V60.918H604.801ZM605.801 74.0762H611.855V72.0762H605.801V74.0762ZM612.855 73.0762V66.9727H610.855V73.0762H612.855ZM611.855 67.9727H617.91V65.9727H611.855V67.9727ZM618.91 66.9727V60.918H616.91V66.9727H618.91ZM617.91 61.918H630.02V59.918H617.91V61.918ZM629.02 60.918V66.9727H631.02V60.918H629.02ZM630.02 67.9727H636.074V65.9727H630.02V67.9727ZM635.074 66.9727V73.0762H637.074V66.9727H635.074ZM636.074 74.0762H642.178V72.0762H636.074V74.0762ZM641.178 73.0762V79.1309H643.178V73.0762H641.178ZM642.178 78.1309H636.074V80.1309H642.178V78.1309ZM635.074 79.1309V85.1855H637.074V79.1309H635.074ZM636.074 84.1855H630.02V86.1855H636.074V84.1855ZM629.02 85.1855V91.2402H631.02V85.1855H629.02ZM630.02 90.2402H623.965V92.2402H630.02V90.2402ZM624.965 91.2402V85.1855H622.965V91.2402H624.965ZM623.965 84.1855H617.91V86.1855H623.965V84.1855ZM618.91 85.1855V79.1309H616.91V85.1855H618.91ZM617.91 78.1309H605.801V80.1309H617.91V78.1309ZM604.801 79.1309V157.891H606.801V79.1309H604.801ZM605.801 156.891H599.746V158.891H605.801V156.891ZM598.746 157.891V163.945H600.746V157.891H598.746ZM599.746 162.945H593.691V164.945H599.746V162.945ZM592.691 163.945V170H594.691V163.945H592.691ZM593.691 169H587.637V171H593.691V169ZM678.457 127.617H677.457V128.617H678.457V127.617ZM678.457 121.562V120.562H677.457V121.562H678.457ZM684.512 121.562H685.512V120.562H684.512V121.562ZM684.512 127.617V128.617H685.512V127.617H684.512ZM684.512 121.562H683.512V122.562H684.512V121.562ZM684.512 115.459V114.459H683.512V115.459H684.512ZM690.566 115.459H691.566V114.459H690.566V115.459ZM690.566 121.562V122.562H691.566V121.562H690.566ZM696.621 151.836H695.621V152.836H696.621V151.836ZM696.621 127.617V126.617H695.621V127.617H696.621ZM702.676 127.617V128.617H703.676V127.617H702.676ZM702.676 121.562V120.562H701.676V121.562H702.676ZM708.779 121.562V122.562H709.779V121.562H708.779ZM708.779 115.459V114.459H707.779V115.459H708.779ZM714.834 115.459H715.834V114.459H714.834V115.459ZM714.834 139.727V140.727H715.834V139.727H714.834ZM708.779 139.727V138.727H707.779V139.727H708.779ZM708.779 145.781V146.781H709.779V145.781H708.779ZM702.676 145.781V144.781H701.676V145.781H702.676ZM702.676 151.836V152.836H703.676V151.836H702.676ZM690.566 115.459H689.566V116.459H690.566V115.459ZM690.566 109.404V108.404H689.566V109.404H690.566ZM696.621 109.404H697.621V108.404H696.621V109.404ZM696.621 115.459V116.459H697.621V115.459H696.621ZM672.402 170H671.402V171H672.402V170ZM672.402 163.945H673.402V162.945H672.402V163.945ZM666.348 163.945H665.348V164.945H666.348V163.945ZM666.348 157.891H667.348V156.891H666.348V157.891ZM660.293 157.891H659.293V158.891H660.293V157.891ZM660.293 151.836H661.293V150.836H660.293V151.836ZM654.238 151.836H653.238V152.836H654.238V151.836ZM654.238 91.2402V90.2402H653.238V91.2402H654.238ZM660.293 91.2402V92.2402H661.293V91.2402H660.293ZM660.293 85.1855V84.1855H659.293V85.1855H660.293ZM666.348 85.1855V86.1855H667.348V85.1855H666.348ZM666.348 79.1309V78.1309H665.348V79.1309H666.348ZM672.402 79.1309H673.402V78.1309H672.402V79.1309ZM672.402 127.617H671.402V128.617H672.402V127.617ZM678.457 127.617H679.457V126.617H678.457V127.617ZM678.457 133.672V134.672H679.457V133.672H678.457ZM672.402 133.672V132.672H671.402V133.672H672.402ZM672.402 139.727H671.402V140.727H672.402V139.727ZM678.457 139.727H679.457V138.727H678.457V139.727ZM678.457 145.781H677.457V146.781H678.457V145.781ZM684.512 145.781H685.512V144.781H684.512V145.781ZM684.512 151.836H683.512V152.836H684.512V151.836ZM696.621 151.836H697.621V150.836H696.621V151.836ZM696.621 157.891V158.891H697.621V157.891H696.621ZM690.566 157.891V156.891H689.566V157.891H690.566ZM690.566 163.945V164.945H691.566V163.945H690.566ZM684.512 163.945V162.945H683.512V163.945H684.512ZM684.512 170V171H685.512V170H684.512ZM696.621 109.404H695.621V110.404H696.621V109.404ZM696.621 91.2402H697.621V90.2402H696.621V91.2402ZM690.566 91.2402H689.566V92.2402H690.566V91.2402ZM690.566 85.1855H691.566V84.1855H690.566V85.1855ZM684.512 85.1855H683.512V86.1855H684.512V85.1855ZM684.512 79.1309H685.512V78.1309H684.512V79.1309ZM672.402 79.1309H671.402V80.1309H672.402V79.1309ZM672.402 73.0762V72.0762H671.402V73.0762H672.402ZM678.457 73.0762V74.0762H679.457V73.0762H678.457ZM678.457 66.9727V65.9727H677.457V66.9727H678.457ZM684.512 66.9727V67.9727H685.512V66.9727H684.512ZM684.512 60.918V59.918H683.512V60.918H684.512ZM696.621 60.918H697.621V59.918H696.621V60.918ZM696.621 66.9727H695.621V67.9727H696.621V66.9727ZM702.676 66.9727H703.676V65.9727H702.676V66.9727ZM702.676 73.0762H701.676V74.0762H702.676V73.0762ZM708.779 73.0762H709.779V72.0762H708.779V73.0762ZM708.779 79.1309H707.779V80.1309H708.779V79.1309ZM714.834 79.1309H715.834V78.1309H714.834V79.1309ZM714.834 97.2949V98.2949H715.834V97.2949H714.834ZM708.779 97.2949V96.2949H707.779V97.2949H708.779ZM708.779 103.35V104.35H709.779V103.35H708.779ZM702.676 103.35V102.35H701.676V103.35H702.676ZM702.676 109.404V110.404H703.676V109.404H702.676ZM679.457 127.617V121.562H677.457V127.617H679.457ZM678.457 122.562H684.512V120.562H678.457V122.562ZM683.512 121.562V127.617H685.512V121.562H683.512ZM684.512 126.617H678.457V128.617H684.512V126.617ZM685.512 121.562V115.459H683.512V121.562H685.512ZM684.512 116.459H690.566V114.459H684.512V116.459ZM689.566 115.459V121.562H691.566V115.459H689.566ZM690.566 120.562H684.512V122.562H690.566V120.562ZM697.621 151.836V127.617H695.621V151.836H697.621ZM696.621 128.617H702.676V126.617H696.621V128.617ZM703.676 127.617V121.562H701.676V127.617H703.676ZM702.676 122.562H708.779V120.562H702.676V122.562ZM709.779 121.562V115.459H707.779V121.562H709.779ZM708.779 116.459H714.834V114.459H708.779V116.459ZM713.834 115.459V139.727H715.834V115.459H713.834ZM714.834 138.727H708.779V140.727H714.834V138.727ZM707.779 139.727V145.781H709.779V139.727H707.779ZM708.779 144.781H702.676V146.781H708.779V144.781ZM701.676 145.781V151.836H703.676V145.781H701.676ZM702.676 150.836H696.621V152.836H702.676V150.836ZM691.566 115.459V109.404H689.566V115.459H691.566ZM690.566 110.404H696.621V108.404H690.566V110.404ZM695.621 109.404V115.459H697.621V109.404H695.621ZM696.621 114.459H690.566V116.459H696.621V114.459ZM673.402 170V163.945H671.402V170H673.402ZM672.402 162.945H666.348V164.945H672.402V162.945ZM667.348 163.945V157.891H665.348V163.945H667.348ZM666.348 156.891H660.293V158.891H666.348V156.891ZM661.293 157.891V151.836H659.293V157.891H661.293ZM660.293 150.836H654.238V152.836H660.293V150.836ZM655.238 151.836V91.2402H653.238V151.836H655.238ZM654.238 92.2402H660.293V90.2402H654.238V92.2402ZM661.293 91.2402V85.1855H659.293V91.2402H661.293ZM660.293 86.1855H666.348V84.1855H660.293V86.1855ZM667.348 85.1855V79.1309H665.348V85.1855H667.348ZM666.348 80.1309H672.402V78.1309H666.348V80.1309ZM671.402 79.1309V127.617H673.402V79.1309H671.402ZM672.402 128.617H678.457V126.617H672.402V128.617ZM677.457 127.617V133.672H679.457V127.617H677.457ZM678.457 132.672H672.402V134.672H678.457V132.672ZM671.402 133.672V139.727H673.402V133.672H671.402ZM672.402 140.727H678.457V138.727H672.402V140.727ZM677.457 139.727V145.781H679.457V139.727H677.457ZM678.457 146.781H684.512V144.781H678.457V146.781ZM683.512 145.781V151.836H685.512V145.781H683.512ZM684.512 152.836H696.621V150.836H684.512V152.836ZM695.621 151.836V157.891H697.621V151.836H695.621ZM696.621 156.891H690.566V158.891H696.621V156.891ZM689.566 157.891V163.945H691.566V157.891H689.566ZM690.566 162.945H684.512V164.945H690.566V162.945ZM683.512 163.945V170H685.512V163.945H683.512ZM684.512 169H672.402V171H684.512V169ZM697.621 109.404V91.2402H695.621V109.404H697.621ZM696.621 90.2402H690.566V92.2402H696.621V90.2402ZM691.566 91.2402V85.1855H689.566V91.2402H691.566ZM690.566 84.1855H684.512V86.1855H690.566V84.1855ZM685.512 85.1855V79.1309H683.512V85.1855H685.512ZM684.512 78.1309H672.402V80.1309H684.512V78.1309ZM673.402 79.1309V73.0762H671.402V79.1309H673.402ZM672.402 74.0762H678.457V72.0762H672.402V74.0762ZM679.457 73.0762V66.9727H677.457V73.0762H679.457ZM678.457 67.9727H684.512V65.9727H678.457V67.9727ZM685.512 66.9727V60.918H683.512V66.9727H685.512ZM684.512 61.918H696.621V59.918H684.512V61.918ZM695.621 60.918V66.9727H697.621V60.918H695.621ZM696.621 67.9727H702.676V65.9727H696.621V67.9727ZM701.676 66.9727V73.0762H703.676V66.9727H701.676ZM702.676 74.0762H708.779V72.0762H702.676V74.0762ZM707.779 73.0762V79.1309H709.779V73.0762H707.779ZM708.779 80.1309H714.834V78.1309H708.779V80.1309ZM713.834 79.1309V97.2949H715.834V79.1309H713.834ZM714.834 96.2949H708.779V98.2949H714.834V96.2949ZM707.779 97.2949V103.35H709.779V97.2949H707.779ZM708.779 102.35H702.676V104.35H708.779V102.35ZM701.676 103.35V109.404H703.676V103.35H701.676ZM702.676 108.404H696.621V110.404H702.676V108.404ZM745.059 170H744.059V171H745.059V170ZM745.059 163.945H746.059V162.945H745.059V163.945ZM739.004 163.945H738.004V164.945H739.004V163.945ZM739.004 157.891H740.004V156.891H739.004V157.891ZM732.949 157.891H731.949V158.891H732.949V157.891ZM732.949 151.836H733.949V150.836H732.949V151.836ZM726.895 151.836H725.895V152.836H726.895V151.836ZM726.895 139.727V138.727H725.895V139.727H726.895ZM751.113 139.727H752.113V138.727H751.113V139.727ZM751.113 145.781H750.113V146.781H751.113V145.781ZM757.168 145.781H758.168V144.781H757.168V145.781ZM757.168 151.836H756.168V152.836H757.168V151.836ZM769.277 151.836H770.277V150.836H769.277V151.836ZM769.277 157.891V158.891H770.277V157.891H769.277ZM763.223 157.891V156.891H762.223V157.891H763.223ZM763.223 163.945V164.945H764.223V163.945H763.223ZM757.168 163.945V162.945H756.168V163.945H757.168ZM757.168 170V171H758.168V170H757.168ZM769.277 151.836H768.277V152.836H769.277V151.836ZM769.277 139.727H770.277V138.727H769.277V139.727ZM763.223 139.727H762.223V140.727H763.223V139.727ZM763.223 133.672H764.223V132.672H763.223V133.672ZM757.168 133.672H756.168V134.672H757.168V133.672ZM757.168 127.617H758.168V126.617H757.168V127.617ZM751.113 127.617H750.113V128.617H751.113V127.617ZM751.113 121.562H752.113V120.562H751.113V121.562ZM745.059 121.562H744.059V122.562H745.059V121.562ZM745.059 115.459H746.059V114.459H745.059V115.459ZM739.004 115.459H738.004V116.459H739.004V115.459ZM739.004 109.404H740.004V108.404H739.004V109.404ZM732.949 109.404H731.949V110.404H732.949V109.404ZM732.949 103.35H733.949V102.35H732.949V103.35ZM726.895 103.35H725.895V104.35H726.895V103.35ZM726.895 91.2402V90.2402H725.895V91.2402H726.895ZM732.949 91.2402V92.2402H733.949V91.2402H732.949ZM732.949 85.1855V84.1855H731.949V85.1855H732.949ZM739.004 85.1855V86.1855H740.004V85.1855H739.004ZM739.004 79.1309V78.1309H738.004V79.1309H739.004ZM745.059 79.1309H746.059V78.1309H745.059V79.1309ZM745.059 91.2402H744.059V92.2402H745.059V91.2402ZM751.113 91.2402H752.113V90.2402H751.113V91.2402ZM751.113 97.2949H750.113V98.2949H751.113V97.2949ZM757.168 97.2949H758.168V96.2949H757.168V97.2949ZM757.168 103.35H756.168V104.35H757.168V103.35ZM763.223 103.35H764.223V102.35H763.223V103.35ZM763.223 109.404H762.223V110.404H763.223V109.404ZM769.277 109.404H770.277V108.404H769.277V109.404ZM769.277 115.459H768.277V116.459H769.277V115.459ZM775.332 115.459H776.332V114.459H775.332V115.459ZM775.332 121.562H774.332V122.562H775.332V121.562ZM781.436 121.562H782.436V120.562H781.436V121.562ZM781.436 127.617H780.436V128.617H781.436V127.617ZM787.49 127.617H788.49V126.617H787.49V127.617ZM787.49 139.727V140.727H788.49V139.727H787.49ZM781.436 139.727V138.727H780.436V139.727H781.436ZM781.436 145.781V146.781H782.436V145.781H781.436ZM775.332 145.781V144.781H774.332V145.781H775.332ZM775.332 151.836V152.836H776.332V151.836H775.332ZM763.223 91.2402H762.223V92.2402H763.223V91.2402ZM763.223 85.1855H764.223V84.1855H763.223V85.1855ZM757.168 85.1855H756.168V86.1855H757.168V85.1855ZM757.168 79.1309H758.168V78.1309H757.168V79.1309ZM745.059 79.1309H744.059V80.1309H745.059V79.1309ZM745.059 73.0762V72.0762H744.059V73.0762H745.059ZM751.113 73.0762V74.0762H752.113V73.0762H751.113ZM751.113 66.9727V65.9727H750.113V66.9727H751.113ZM757.168 66.9727V67.9727H758.168V66.9727H757.168ZM757.168 60.918V59.918H756.168V60.918H757.168ZM769.277 60.918H770.277V59.918H769.277V60.918ZM769.277 66.9727H768.277V67.9727H769.277V66.9727ZM775.332 66.9727H776.332V65.9727H775.332V66.9727ZM775.332 73.0762H774.332V74.0762H775.332V73.0762ZM781.436 73.0762H782.436V72.0762H781.436V73.0762ZM781.436 79.1309H780.436V80.1309H781.436V79.1309ZM787.49 79.1309H788.49V78.1309H787.49V79.1309ZM787.49 91.2402V92.2402H788.49V91.2402H787.49ZM746.059 170V163.945H744.059V170H746.059ZM745.059 162.945H739.004V164.945H745.059V162.945ZM740.004 163.945V157.891H738.004V163.945H740.004ZM739.004 156.891H732.949V158.891H739.004V156.891ZM733.949 157.891V151.836H731.949V157.891H733.949ZM732.949 150.836H726.895V152.836H732.949V150.836ZM727.895 151.836V139.727H725.895V151.836H727.895ZM726.895 140.727H751.113V138.727H726.895V140.727ZM750.113 139.727V145.781H752.113V139.727H750.113ZM751.113 146.781H757.168V144.781H751.113V146.781ZM756.168 145.781V151.836H758.168V145.781H756.168ZM757.168 152.836H769.277V150.836H757.168V152.836ZM768.277 151.836V157.891H770.277V151.836H768.277ZM769.277 156.891H763.223V158.891H769.277V156.891ZM762.223 157.891V163.945H764.223V157.891H762.223ZM763.223 162.945H757.168V164.945H763.223V162.945ZM756.168 163.945V170H758.168V163.945H756.168ZM757.168 169H745.059V171H757.168V169ZM770.277 151.836V139.727H768.277V151.836H770.277ZM769.277 138.727H763.223V140.727H769.277V138.727ZM764.223 139.727V133.672H762.223V139.727H764.223ZM763.223 132.672H757.168V134.672H763.223V132.672ZM758.168 133.672V127.617H756.168V133.672H758.168ZM757.168 126.617H751.113V128.617H757.168V126.617ZM752.113 127.617V121.562H750.113V127.617H752.113ZM751.113 120.562H745.059V122.562H751.113V120.562ZM746.059 121.562V115.459H744.059V121.562H746.059ZM745.059 114.459H739.004V116.459H745.059V114.459ZM740.004 115.459V109.404H738.004V115.459H740.004ZM739.004 108.404H732.949V110.404H739.004V108.404ZM733.949 109.404V103.35H731.949V109.404H733.949ZM732.949 102.35H726.895V104.35H732.949V102.35ZM727.895 103.35V91.2402H725.895V103.35H727.895ZM726.895 92.2402H732.949V90.2402H726.895V92.2402ZM733.949 91.2402V85.1855H731.949V91.2402H733.949ZM732.949 86.1855H739.004V84.1855H732.949V86.1855ZM740.004 85.1855V79.1309H738.004V85.1855H740.004ZM739.004 80.1309H745.059V78.1309H739.004V80.1309ZM744.059 79.1309V91.2402H746.059V79.1309H744.059ZM745.059 92.2402H751.113V90.2402H745.059V92.2402ZM750.113 91.2402V97.2949H752.113V91.2402H750.113ZM751.113 98.2949H757.168V96.2949H751.113V98.2949ZM756.168 97.2949V103.35H758.168V97.2949H756.168ZM757.168 104.35H763.223V102.35H757.168V104.35ZM762.223 103.35V109.404H764.223V103.35H762.223ZM763.223 110.404H769.277V108.404H763.223V110.404ZM768.277 109.404V115.459H770.277V109.404H768.277ZM769.277 116.459H775.332V114.459H769.277V116.459ZM774.332 115.459V121.562H776.332V115.459H774.332ZM775.332 122.562H781.436V120.562H775.332V122.562ZM780.436 121.562V127.617H782.436V121.562H780.436ZM781.436 128.617H787.49V126.617H781.436V128.617ZM786.49 127.617V139.727H788.49V127.617H786.49ZM787.49 138.727H781.436V140.727H787.49V138.727ZM780.436 139.727V145.781H782.436V139.727H780.436ZM781.436 144.781H775.332V146.781H781.436V144.781ZM774.332 145.781V151.836H776.332V145.781H774.332ZM775.332 150.836H769.277V152.836H775.332V150.836ZM764.223 91.2402V85.1855H762.223V91.2402H764.223ZM763.223 84.1855H757.168V86.1855H763.223V84.1855ZM758.168 85.1855V79.1309H756.168V85.1855H758.168ZM757.168 78.1309H745.059V80.1309H757.168V78.1309ZM746.059 79.1309V73.0762H744.059V79.1309H746.059ZM745.059 74.0762H751.113V72.0762H745.059V74.0762ZM752.113 73.0762V66.9727H750.113V73.0762H752.113ZM751.113 67.9727H757.168V65.9727H751.113V67.9727ZM758.168 66.9727V60.918H756.168V66.9727H758.168ZM757.168 61.918H769.277V59.918H757.168V61.918ZM768.277 60.918V66.9727H770.277V60.918H768.277ZM769.277 67.9727H775.332V65.9727H769.277V67.9727ZM774.332 66.9727V73.0762H776.332V66.9727H774.332ZM775.332 74.0762H781.436V72.0762H775.332V74.0762ZM780.436 73.0762V79.1309H782.436V73.0762H780.436ZM781.436 80.1309H787.49V78.1309H781.436V80.1309ZM786.49 79.1309V91.2402H788.49V79.1309H786.49ZM787.49 90.2402H763.223V92.2402H787.49V90.2402ZM817.715 170H816.715V171H817.715V170ZM817.715 163.945H818.715V162.945H817.715V163.945ZM811.66 163.945H810.66V164.945H811.66V163.945ZM811.66 157.891H812.66V156.891H811.66V157.891ZM805.605 157.891H804.605V158.891H805.605V157.891ZM805.605 151.836H806.605V150.836H805.605V151.836ZM799.551 151.836H798.551V152.836H799.551V151.836ZM799.551 139.727V138.727H798.551V139.727H799.551ZM823.77 139.727H824.77V138.727H823.77V139.727ZM823.77 145.781H822.77V146.781H823.77V145.781ZM829.824 145.781H830.824V144.781H829.824V145.781ZM829.824 151.836H828.824V152.836H829.824V151.836ZM841.934 151.836H842.934V150.836H841.934V151.836ZM841.934 157.891V158.891H842.934V157.891H841.934ZM835.879 157.891V156.891H834.879V157.891H835.879ZM835.879 163.945V164.945H836.879V163.945H835.879ZM829.824 163.945V162.945H828.824V163.945H829.824ZM829.824 170V171H830.824V170H829.824ZM841.934 151.836H840.934V152.836H841.934V151.836ZM841.934 139.727H842.934V138.727H841.934V139.727ZM835.879 139.727H834.879V140.727H835.879V139.727ZM835.879 133.672H836.879V132.672H835.879V133.672ZM829.824 133.672H828.824V134.672H829.824V133.672ZM829.824 127.617H830.824V126.617H829.824V127.617ZM823.77 127.617H822.77V128.617H823.77V127.617ZM823.77 121.562H824.77V120.562H823.77V121.562ZM817.715 121.562H816.715V122.562H817.715V121.562ZM817.715 115.459H818.715V114.459H817.715V115.459ZM811.66 115.459H810.66V116.459H811.66V115.459ZM811.66 109.404H812.66V108.404H811.66V109.404ZM805.605 109.404H804.605V110.404H805.605V109.404ZM805.605 103.35H806.605V102.35H805.605V103.35ZM799.551 103.35H798.551V104.35H799.551V103.35ZM799.551 91.2402V90.2402H798.551V91.2402H799.551ZM805.605 91.2402V92.2402H806.605V91.2402H805.605ZM805.605 85.1855V84.1855H804.605V85.1855H805.605ZM811.66 85.1855V86.1855H812.66V85.1855H811.66ZM811.66 79.1309V78.1309H810.66V79.1309H811.66ZM817.715 79.1309H818.715V78.1309H817.715V79.1309ZM817.715 91.2402H816.715V92.2402H817.715V91.2402ZM823.77 91.2402H824.77V90.2402H823.77V91.2402ZM823.77 97.2949H822.77V98.2949H823.77V97.2949ZM829.824 97.2949H830.824V96.2949H829.824V97.2949ZM829.824 103.35H828.824V104.35H829.824V103.35ZM835.879 103.35H836.879V102.35H835.879V103.35ZM835.879 109.404H834.879V110.404H835.879V109.404ZM841.934 109.404H842.934V108.404H841.934V109.404ZM841.934 115.459H840.934V116.459H841.934V115.459ZM847.988 115.459H848.988V114.459H847.988V115.459ZM847.988 121.562H846.988V122.562H847.988V121.562ZM854.092 121.562H855.092V120.562H854.092V121.562ZM854.092 127.617H853.092V128.617H854.092V127.617ZM860.146 127.617H861.146V126.617H860.146V127.617ZM860.146 139.727V140.727H861.146V139.727H860.146ZM854.092 139.727V138.727H853.092V139.727H854.092ZM854.092 145.781V146.781H855.092V145.781H854.092ZM847.988 145.781V144.781H846.988V145.781H847.988ZM847.988 151.836V152.836H848.988V151.836H847.988ZM835.879 91.2402H834.879V92.2402H835.879V91.2402ZM835.879 85.1855H836.879V84.1855H835.879V85.1855ZM829.824 85.1855H828.824V86.1855H829.824V85.1855ZM829.824 79.1309H830.824V78.1309H829.824V79.1309ZM817.715 79.1309H816.715V80.1309H817.715V79.1309ZM817.715 73.0762V72.0762H816.715V73.0762H817.715ZM823.77 73.0762V74.0762H824.77V73.0762H823.77ZM823.77 66.9727V65.9727H822.77V66.9727H823.77ZM829.824 66.9727V67.9727H830.824V66.9727H829.824ZM829.824 60.918V59.918H828.824V60.918H829.824ZM841.934 60.918H842.934V59.918H841.934V60.918ZM841.934 66.9727H840.934V67.9727H841.934V66.9727ZM847.988 66.9727H848.988V65.9727H847.988V66.9727ZM847.988 73.0762H846.988V74.0762H847.988V73.0762ZM854.092 73.0762H855.092V72.0762H854.092V73.0762ZM854.092 79.1309H853.092V80.1309H854.092V79.1309ZM860.146 79.1309H861.146V78.1309H860.146V79.1309ZM860.146 91.2402V92.2402H861.146V91.2402H860.146ZM818.715 170V163.945H816.715V170H818.715ZM817.715 162.945H811.66V164.945H817.715V162.945ZM812.66 163.945V157.891H810.66V163.945H812.66ZM811.66 156.891H805.605V158.891H811.66V156.891ZM806.605 157.891V151.836H804.605V157.891H806.605ZM805.605 150.836H799.551V152.836H805.605V150.836ZM800.551 151.836V139.727H798.551V151.836H800.551ZM799.551 140.727H823.77V138.727H799.551V140.727ZM822.77 139.727V145.781H824.77V139.727H822.77ZM823.77 146.781H829.824V144.781H823.77V146.781ZM828.824 145.781V151.836H830.824V145.781H828.824ZM829.824 152.836H841.934V150.836H829.824V152.836ZM840.934 151.836V157.891H842.934V151.836H840.934ZM841.934 156.891H835.879V158.891H841.934V156.891ZM834.879 157.891V163.945H836.879V157.891H834.879ZM835.879 162.945H829.824V164.945H835.879V162.945ZM828.824 163.945V170H830.824V163.945H828.824ZM829.824 169H817.715V171H829.824V169ZM842.934 151.836V139.727H840.934V151.836H842.934ZM841.934 138.727H835.879V140.727H841.934V138.727ZM836.879 139.727V133.672H834.879V139.727H836.879ZM835.879 132.672H829.824V134.672H835.879V132.672ZM830.824 133.672V127.617H828.824V133.672H830.824ZM829.824 126.617H823.77V128.617H829.824V126.617ZM824.77 127.617V121.562H822.77V127.617H824.77ZM823.77 120.562H817.715V122.562H823.77V120.562ZM818.715 121.562V115.459H816.715V121.562H818.715ZM817.715 114.459H811.66V116.459H817.715V114.459ZM812.66 115.459V109.404H810.66V115.459H812.66ZM811.66 108.404H805.605V110.404H811.66V108.404ZM806.605 109.404V103.35H804.605V109.404H806.605ZM805.605 102.35H799.551V104.35H805.605V102.35ZM800.551 103.35V91.2402H798.551V103.35H800.551ZM799.551 92.2402H805.605V90.2402H799.551V92.2402ZM806.605 91.2402V85.1855H804.605V91.2402H806.605ZM805.605 86.1855H811.66V84.1855H805.605V86.1855ZM812.66 85.1855V79.1309H810.66V85.1855H812.66ZM811.66 80.1309H817.715V78.1309H811.66V80.1309ZM816.715 79.1309V91.2402H818.715V79.1309H816.715ZM817.715 92.2402H823.77V90.2402H817.715V92.2402ZM822.77 91.2402V97.2949H824.77V91.2402H822.77ZM823.77 98.2949H829.824V96.2949H823.77V98.2949ZM828.824 97.2949V103.35H830.824V97.2949H828.824ZM829.824 104.35H835.879V102.35H829.824V104.35ZM834.879 103.35V109.404H836.879V103.35H834.879ZM835.879 110.404H841.934V108.404H835.879V110.404ZM840.934 109.404V115.459H842.934V109.404H840.934ZM841.934 116.459H847.988V114.459H841.934V116.459ZM846.988 115.459V121.562H848.988V115.459H846.988ZM847.988 122.562H854.092V120.562H847.988V122.562ZM853.092 121.562V127.617H855.092V121.562H853.092ZM854.092 128.617H860.146V126.617H854.092V128.617ZM859.146 127.617V139.727H861.146V127.617H859.146ZM860.146 138.727H854.092V140.727H860.146V138.727ZM853.092 139.727V145.781H855.092V139.727H853.092ZM854.092 144.781H847.988V146.781H854.092V144.781ZM846.988 145.781V151.836H848.988V145.781H846.988ZM847.988 150.836H841.934V152.836H847.988V150.836ZM836.879 91.2402V85.1855H834.879V91.2402H836.879ZM835.879 84.1855H829.824V86.1855H835.879V84.1855ZM830.824 85.1855V79.1309H828.824V85.1855H830.824ZM829.824 78.1309H817.715V80.1309H829.824V78.1309ZM818.715 79.1309V73.0762H816.715V79.1309H818.715ZM817.715 74.0762H823.77V72.0762H817.715V74.0762ZM824.77 73.0762V66.9727H822.77V73.0762H824.77ZM823.77 67.9727H829.824V65.9727H823.77V67.9727ZM830.824 66.9727V60.918H828.824V66.9727H830.824ZM829.824 61.918H841.934V59.918H829.824V61.918ZM840.934 60.918V66.9727H842.934V60.918H840.934ZM841.934 67.9727H847.988V65.9727H841.934V67.9727ZM846.988 66.9727V73.0762H848.988V66.9727H846.988ZM847.988 74.0762H854.092V72.0762H847.988V74.0762ZM853.092 73.0762V79.1309H855.092V73.0762H853.092ZM854.092 80.1309H860.146V78.1309H854.092V80.1309ZM859.146 79.1309V91.2402H861.146V79.1309H859.146ZM860.146 90.2402H835.879V92.2402H860.146V90.2402ZM890.371 170H889.371V171H890.371V170ZM890.371 163.945H891.371V162.945H890.371V163.945ZM884.316 163.945H883.316V164.945H884.316V163.945ZM884.316 157.891H885.316V156.891H884.316V157.891ZM878.262 157.891H877.262V158.891H878.262V157.891ZM878.262 151.836H879.262V150.836H878.262V151.836ZM872.207 151.836H871.207V152.836H872.207V151.836ZM872.207 91.2402V90.2402H871.207V91.2402H872.207ZM878.262 91.2402V92.2402H879.262V91.2402H878.262ZM878.262 85.1855V84.1855H877.262V85.1855H878.262ZM884.316 85.1855V86.1855H885.316V85.1855H884.316ZM884.316 79.1309V78.1309H883.316V79.1309H884.316ZM890.371 79.1309H891.371V78.1309H890.371V79.1309ZM890.371 139.727H889.371V140.727H890.371V139.727ZM896.426 139.727H897.426V138.727H896.426V139.727ZM896.426 145.781H895.426V146.781H896.426V145.781ZM902.48 145.781H903.48V144.781H902.48V145.781ZM902.48 151.836H901.48V152.836H902.48V151.836ZM914.59 151.836H915.59V150.836H914.59V151.836ZM914.59 157.891V158.891H915.59V157.891H914.59ZM908.535 157.891V156.891H907.535V157.891H908.535ZM908.535 163.945V164.945H909.535V163.945H908.535ZM902.48 163.945V162.945H901.48V163.945H902.48ZM902.48 170V171H903.48V170H902.48ZM914.59 151.836H913.59V152.836H914.59V151.836ZM914.59 91.2402H915.59V90.2402H914.59V91.2402ZM908.535 91.2402H907.535V92.2402H908.535V91.2402ZM908.535 85.1855H909.535V84.1855H908.535V85.1855ZM902.48 85.1855H901.48V86.1855H902.48V85.1855ZM902.48 79.1309H903.48V78.1309H902.48V79.1309ZM890.371 79.1309H889.371V80.1309H890.371V79.1309ZM890.371 73.0762V72.0762H889.371V73.0762H890.371ZM896.426 73.0762V74.0762H897.426V73.0762H896.426ZM896.426 66.9727V65.9727H895.426V66.9727H896.426ZM902.48 66.9727V67.9727H903.48V66.9727H902.48ZM902.48 60.918V59.918H901.48V60.918H902.48ZM914.59 60.918H915.59V59.918H914.59V60.918ZM914.59 66.9727H913.59V67.9727H914.59V66.9727ZM920.645 66.9727H921.645V65.9727H920.645V66.9727ZM920.645 73.0762H919.645V74.0762H920.645V73.0762ZM926.748 73.0762H927.748V72.0762H926.748V73.0762ZM926.748 79.1309H925.748V80.1309H926.748V79.1309ZM932.803 79.1309H933.803V78.1309H932.803V79.1309ZM932.803 139.727V140.727H933.803V139.727H932.803ZM926.748 139.727V138.727H925.748V139.727H926.748ZM926.748 145.781V146.781H927.748V145.781H926.748ZM920.645 145.781V144.781H919.645V145.781H920.645ZM920.645 151.836V152.836H921.645V151.836H920.645ZM891.371 170V163.945H889.371V170H891.371ZM890.371 162.945H884.316V164.945H890.371V162.945ZM885.316 163.945V157.891H883.316V163.945H885.316ZM884.316 156.891H878.262V158.891H884.316V156.891ZM879.262 157.891V151.836H877.262V157.891H879.262ZM878.262 150.836H872.207V152.836H878.262V150.836ZM873.207 151.836V91.2402H871.207V151.836H873.207ZM872.207 92.2402H878.262V90.2402H872.207V92.2402ZM879.262 91.2402V85.1855H877.262V91.2402H879.262ZM878.262 86.1855H884.316V84.1855H878.262V86.1855ZM885.316 85.1855V79.1309H883.316V85.1855H885.316ZM884.316 80.1309H890.371V78.1309H884.316V80.1309ZM889.371 79.1309V139.727H891.371V79.1309H889.371ZM890.371 140.727H896.426V138.727H890.371V140.727ZM895.426 139.727V145.781H897.426V139.727H895.426ZM896.426 146.781H902.48V144.781H896.426V146.781ZM901.48 145.781V151.836H903.48V145.781H901.48ZM902.48 152.836H914.59V150.836H902.48V152.836ZM913.59 151.836V157.891H915.59V151.836H913.59ZM914.59 156.891H908.535V158.891H914.59V156.891ZM907.535 157.891V163.945H909.535V157.891H907.535ZM908.535 162.945H902.48V164.945H908.535V162.945ZM901.48 163.945V170H903.48V163.945H901.48ZM902.48 169H890.371V171H902.48V169ZM915.59 151.836V91.2402H913.59V151.836H915.59ZM914.59 90.2402H908.535V92.2402H914.59V90.2402ZM909.535 91.2402V85.1855H907.535V91.2402H909.535ZM908.535 84.1855H902.48V86.1855H908.535V84.1855ZM903.48 85.1855V79.1309H901.48V85.1855H903.48ZM902.48 78.1309H890.371V80.1309H902.48V78.1309ZM891.371 79.1309V73.0762H889.371V79.1309H891.371ZM890.371 74.0762H896.426V72.0762H890.371V74.0762ZM897.426 73.0762V66.9727H895.426V73.0762H897.426ZM896.426 67.9727H902.48V65.9727H896.426V67.9727ZM903.48 66.9727V60.918H901.48V66.9727H903.48ZM902.48 61.918H914.59V59.918H902.48V61.918ZM913.59 60.918V66.9727H915.59V60.918H913.59ZM914.59 67.9727H920.645V65.9727H914.59V67.9727ZM919.645 66.9727V73.0762H921.645V66.9727H919.645ZM920.645 74.0762H926.748V72.0762H920.645V74.0762ZM925.748 73.0762V79.1309H927.748V73.0762H925.748ZM926.748 80.1309H932.803V78.1309H926.748V80.1309ZM931.803 79.1309V139.727H933.803V79.1309H931.803ZM932.803 138.727H926.748V140.727H932.803V138.727ZM925.748 139.727V145.781H927.748V139.727H925.748ZM926.748 144.781H920.645V146.781H926.748V144.781ZM919.645 145.781V151.836H921.645V145.781H919.645ZM920.645 150.836H914.59V152.836H920.645V150.836Z" fill="black" fill-opacity="0.7"/>
</svg>
