<?xml version="1.0" encoding="UTF-8" standalone="no"?>
<!-- Created with Inkscape (http://www.inkscape.org/) -->

<svg
   width="15"
   height="15"
   viewBox="0 0 3.9687499 3.96875"
   version="1.1"
   id="svg5"
   inkscape:version="1.2.1 (9c6d41e410, 2022-07-14)"
   sodipodi:docname="google_icon.svg"
   xmlns:inkscape="http://www.inkscape.org/namespaces/inkscape"
   xmlns:sodipodi="http://sodipodi.sourceforge.net/DTD/sodipodi-0.dtd"
   xmlns="http://www.w3.org/2000/svg"
   xmlns:svg="http://www.w3.org/2000/svg">
  <sodipodi:namedview
     id="namedview7"
     pagecolor="#ffffff"
     bordercolor="#000000"
     borderopacity="0.25"
     inkscape:showpageshadow="2"
     inkscape:pageopacity="0.0"
     inkscape:pagecheckerboard="0"
     inkscape:deskcolor="#d1d1d1"
     inkscape:document-units="mm"
     showgrid="false"
     inkscape:zoom="32"
     inkscape:cx="1.375"
     inkscape:cy="7.6875"
     inkscape:window-width="1920"
     inkscape:window-height="986"
     inkscape:window-x="-11"
     inkscape:window-y="-11"
     inkscape:window-maximized="1"
     inkscape:current-layer="layer2"
     showguides="true">
    <inkscape:grid
       type="xygrid"
       id="grid16"
       originx="0"
       originy="0" />
  </sodipodi:namedview>
  <defs
     id="defs2" />
  <g
     inkscape:groupmode="layer"
     id="layer3"
     inkscape:label="Layer 3"
     style="display:inline" />
  <g
     inkscape:groupmode="layer"
     id="layer2"
     inkscape:label="Layer 2"
     style="display:inline">
    <g
       id="g3545">
      <path
         id="rect1845"
         style="fill:#db4437;stroke-width:0.264583"
         d="M 1.3229166,-3.3069763e-8 V 0.2645833 H 1.0583332 0.79374995 V 0.52916664 H 0.52916664 V 0.79374997 H 0.2645833 V 1.0583333 1.3229166 H 0.52916664 V 1.5874999 H 0.79374995 V 1.3229166 H 1.0583332 V 1.0583333 H 1.3229166 V 0.79374997 H 1.5874999 1.8520832 2.1166666 2.3812499 2.6458332 V 1.0583333 H 2.9104166 V 0.79374997 H 3.1749999 V 0.52916664 H 3.4395832 V 0.2645833 H 3.1749999 2.9104166 V -3.3069763e-8 H 2.6458332 2.3812499 2.1166666 1.8520832 1.5874999 Z" />
      <path
         id="rect14058"
         style="fill:#f4b400;fill-opacity:1;stroke:none;stroke-width:0.264583"
         d="M 0 1.0583333 L 0 1.3229167 L 0 1.5875 L 0 1.8520833 L 0 2.1166667 L 0 2.38125 L 0 2.6458333 L 0 2.9104167 L 0.26458333 2.9104167 L 0.26458333 2.6458333 L 0.52916667 2.6458333 L 0.52916667 2.38125 L 0.79375 2.38125 L 0.79375 2.1166667 L 0.79375 1.8520833 L 0.79375 1.5875 L 0.52916667 1.5875 L 0.52916667 1.3229167 L 0.26458333 1.3229167 L 0.26458333 1.0583333 L 0 1.0583333 z " />
      <path
         id="rect17949"
         style="fill:#0f9d58;fill-opacity:1;stroke:none;stroke-width:0.264583"
         d="M 0.52916662,2.3812499 V 2.6458332 H 0.26458329 V 2.9104166 3.1749999 H 0.52916662 V 3.4395832 H 0.79374995 V 3.7041666 H 1.0583332 1.3229166 V 3.9687499 H 1.5874999 1.8520832 2.1166666 2.3812499 2.6458332 2.9104166 V 3.7041666 H 3.1749999 3.4395832 V 3.4395832 H 3.1749999 V 3.1749999 H 2.9104166 V 2.9104166 H 2.6458332 V 3.1749999 H 2.3812499 2.1166666 1.8520832 1.5874999 1.3229166 V 2.9104166 H 1.0583332 V 2.6458332 H 0.79374995 V 2.3812499 Z" />
      <path
         id="rect30083"
         style="fill:#4285f4;fill-opacity:1;stroke:none;stroke-width:0.264583"
         d="M 2.1166666,1.5874999 V 1.8520833 2.1166666 2.3812499 H 2.38125 2.6458333 2.9104166 3.175 V 2.6458333 H 2.9104166 V 2.9104166 3.1749999 H 3.175 V 3.4395833 H 3.4395833 3.7041666 V 3.1749999 2.9104166 H 3.96875 V 2.6458333 2.3812499 2.1166666 1.8520833 1.5874999 H 3.7041666 3.4395833 3.175 2.9104166 2.6458333 2.38125 Z" />
    </g>
  </g>
</svg>
